<svg enable-background="new 0 0 500 500" viewBox="0 0 500 500" xmlns="http://www.w3.org/2000/svg"><path d="m278.4 462.1c-17.2-8.2-24.1-27.6-26.5-45.6-.4-3-1.3-6.1-.3-9s4-5.2 6.9-4.4c2.4.7 3.8 3.1 5.4 5 2.1 2.6 5 4.5 8.2 5.5 2.1.7 4.5.9 6.3-.5 2.3-1.9 2-5.5 1.5-8.5-1-5.6-2-11.1-2.9-16.7-.5-3-1-6-.6-9s2.1-6 4.8-7.2c2.7-1.3 6.5-.2 7.6 2.6.5 1.2.4 2.5.7 3.7s1.1 2.5 2.3 2.6 2.3-.9 3-1.9c2.6-3.5 4-7.8 5.3-12s2.5-8.5 4.8-12.2c2.2-3.8 5.7-7 9.9-8s9.2.9 11 4.9.1 8.7-2 12.6c-3.1 5.7-7 11-11.6 15.6-.8.8-1.7 1.7-1.9 2.9-.3 2.1 1.9 3.8 4 4.1 2.3.4 4.7-.3 7.1-.4s5.1.5 6.3 2.5c1.7 2.8-.3 6.5-2.4 9-4.3 5-9.5 9.3-15.2 12.6-2.1 1.2-4.2 2.3-5.8 4.1-1.5 1.8-2.1 4.7-.7 6.6s4.3 2.1 6.5 1.3 4.1-2.4 6.1-3.6c3.8-2.2 9.2-2.9 12.4.2 2.1 2 2.8 5.3 2.4 8.2s-1.8 5.6-3.3 8.1c-5.3 8.8-12.6 16.4-21.6 21.4-9 4.9-17.6 7.3-27.7 5.5" fill="#f5f5f5"/><path d="m281.2 450c1.1-9.5 3.2-19.8 5.7-30.6.6-2.7 1.3-5.3 1.9-7.9s1.3-5.2 2-7.7c1.5-5 3.4-9.7 5.3-14 1.9-4.4 3.8-8.5 5.7-12.3s3.7-7.3 5.4-10.5c3.5-6.3 7-11 9.5-14.2 1.2-1.6 2.3-2.8 2.9-3.6.3-.4.6-.7.8-.9s.3-.3.3-.3-.1.1-.2.3c-.2.2-.4.5-.8.9-.7.8-1.6 2-2.9 3.6-2.4 3.2-5.8 7.9-9.3 14.2-1.8 3.1-3.5 6.7-5.4 10.5-1.8 3.8-3.8 7.9-5.6 12.3-1.9 4.4-3.7 9-5.2 14-.8 2.5-1.4 5-2 7.6s-1.3 5.3-1.9 7.9c-2.5 10.7-4.6 21-5.8 30.5" fill="#e0e0e0"/><path d="m291 403.8s-.2-.4-.5-1.2-.7-2-1.1-3.4c-.9-2.9-2.1-6.9-3.3-11.4s-2.4-8.5-3.4-11.4c-.5-1.4-.9-2.6-1.2-3.4s-.4-1.3-.4-1.3.2.4.6 1.2c.3.8.8 1.9 1.3 3.3 1.1 2.9 2.3 6.9 3.6 11.3 1.2 4.4 2.3 8.4 3.1 11.4.4 1.4.7 2.5 1 3.5.2.9.4 1.4.3 1.4z" fill="#e0e0e0"/><path d="m328.2 390.1s-.5.2-1.5.4c-1 .3-2.4.6-4.1 1.1-3.4 1-8.2 2.5-13.3 4.4s-9.7 3.8-13 5.3c-1.6.7-2.9 1.4-3.9 1.8-.9.4-1.4.7-1.4.6 0 0 .5-.3 1.3-.8.9-.5 2.2-1.2 3.8-2 3.2-1.6 7.8-3.6 12.9-5.5s9.9-3.4 13.4-4.2c1.7-.5 3.2-.8 4.1-.9 1.1-.1 1.6-.2 1.7-.2z" fill="#e0e0e0"/><path d="m281.5 449.2s-.1-.1-.3-.4-.5-.8-.9-1.3c-.8-1.1-1.8-2.7-3.1-4.8-2.6-4.1-6-9.8-9.7-16.2s-7-12.2-9.5-16.3c-1.2-2-2.2-3.7-3-4.9-.3-.5-.6-1-.8-1.3s-.3-.5-.2-.5c0 0 .1.1.3.4s.5.8.9 1.3c.8 1.1 1.8 2.7 3.1 4.8 2.6 4.1 6 9.8 9.7 16.2s7 12.2 9.5 16.3c1.2 2 2.2 3.7 3 4.9.3.5.6 1 .8 1.3s.2.5.2.5z" fill="#e0e0e0"/><path d="m329.7 424.2s-.2.1-.5.3c-.4.2-.8.4-1.4.7-1.3.7-3 1.6-5.2 2.7-4.4 2.3-10.3 5.5-16.9 9-6.6 3.6-12.6 6.7-17 8.9-2.2 1.1-4 2-5.2 2.5-.6.3-1.1.5-1.4.7-.3.1-.5.2-.5.2s.2-.1.5-.3c.4-.2.8-.4 1.4-.7 1.3-.7 3-1.6 5.2-2.7 4.4-2.3 10.3-5.5 16.9-9 6.6-3.6 12.6-6.7 17-8.9 2.2-1.1 4-2 5.2-2.5.6-.3 1.1-.5 1.4-.7s.5-.2.5-.2z" fill="#e0e0e0"/><path d="m153.4 247.4s-11.9 1.7-5.2 27.7 12.3 39.4 12.3 39.4.9 5.9-3.9 5.7-14.4-4-17.7 1.1c-3.4 5.3-.4 11.7 7 18.4 7.5 6.7 23.2 22 24.7 23.4 1.4 1.4 2.5 4.3-.8 4.6-3.3.4-26.4-2.3-27 8.7-.6 11.1 23.2 26.3 25.8 28s3 3.1 2.4 4.6-8.3-.2-14.9-.7-14.4.1-14.2 6.5 12.7 22.6 49.2 34.6l17.3 4.5 12.8-12.6c25.7-28.6 28.5-48.9 25.5-54.5s-10-2.3-15.5 1.4-11.3 9-12.6 8c-1.2-1-1.6-2.4-.2-5.2s14.5-27.9 8.4-37.1c-6-9.3-24.8 4.6-27.8 5.8-3 1.3-3.5-1.8-3-3.6.5-1.9 6.6-23 9.8-32.6 3.1-9.5 2.5-16.6-3.1-19.5-5.4-2.8-11.9 5.3-15.9 7.9-4 2.5-6.2-3-6.2-3s-1.8-14.5-8.9-40.3c-7.1-25.9-18.5-21.3-18.5-21.3" fill="#ebebeb"/><path d="m208.4 458.3c-5.2-19-13.8-53-21.3-82.2-7.6-29.1-14.4-55.5-19.5-74.6-2.5-9.5-4.6-17.2-6-22.6-.7-2.6-1.3-4.7-1.6-6.1-.2-.7-.3-1.2-.4-1.6s-.1-.6-.1-.6.1.2.2.5c.1.4.3.9.5 1.6.4 1.4 1 3.5 1.7 6.1 1.5 5.3 3.6 13 6.2 22.5 5.2 19 12.1 45.4 19.6 74.5 7.6 29.1 16.1 63.2 21.2 82.2" fill="#e0e0e0"/><path d="m152.3 327.3s.4.2 1.1.6 1.7 1.1 3 1.9c2.5 1.6 5.9 3.9 9.6 6.5 3.6 2.6 6.9 4.9 9.4 6.7 1.1.8 2.1 1.5 2.9 2 .7.5 1 .8 1 .8s-.4-.2-1.1-.6-1.7-1.1-3-1.9c-2.5-1.6-5.8-4-9.5-6.6-3.6-2.6-6.9-4.9-9.5-6.7-1.1-.8-2.1-1.5-2.9-2-.7-.4-1.1-.7-1-.7z" fill="#e0e0e0"/><path d="m180.7 344.9c-.1-.1 4.3-7.3 9.9-16.1s10.3-15.8 10.4-15.8c.1.1-4.3 7.3-9.9 16.1-5.6 8.9-10.3 15.9-10.4 15.8z" fill="#e0e0e0"/><path d="m190.3 390.2s.3-.4.9-.9c.7-.6 1.6-1.4 2.7-2.4 2.3-2 5.4-4.8 8.7-7.9 3.3-3.2 6.3-6.2 8.4-8.3 1-1 1.8-1.9 2.5-2.6.6-.6.9-.9 1-.9 0 0-.3.4-.8 1s-1.3 1.6-2.4 2.7c-2 2.2-4.9 5.3-8.3 8.5-3.3 3.2-6.5 5.9-8.9 7.8-1.2 1-2.1 1.7-2.8 2.2-.6.6-1 .8-1 .8z" fill="#e0e0e0"/><path d="m161 379.9s.4.1 1.2.3c.9.3 1.9.6 3.2 1 2.7.8 6.3 2.1 10.4 3.4 4 1.4 7.7 2.6 10.3 3.6 1.2.5 2.3.8 3.1 1.1.7.3 1.1.5 1.1.5s-.4-.1-1.2-.3c-.9-.3-1.9-.6-3.2-1-2.7-.8-6.3-2.1-10.4-3.4-4-1.4-7.7-2.6-10.3-3.6-1.2-.5-2.3-.8-3.1-1.1-.7-.3-1.1-.5-1.1-.5z" fill="#e0e0e0"/><path d="m164.4 420.9s.5.1 1.5.4c1.1.3 2.4.7 4.1 1.2 3.4 1.1 8.1 2.6 13.3 4.3s9.9 3.3 13.3 4.4c1.6.6 3 1 4 1.4.9.3 1.5.6 1.4.6 0 0-.5-.1-1.5-.4-1.1-.3-2.4-.7-4.1-1.2-3.4-1.1-8.1-2.6-13.3-4.3s-9.9-3.3-13.3-4.4c-1.6-.6-3-1-4-1.4-.9-.3-1.4-.5-1.4-.6z" fill="#e0e0e0"/><path d="m201.2 432.7s.4-.5 1.2-1.2c.9-.8 2-1.9 3.3-3.1 2.8-2.6 6.6-6.3 10.8-10.4 4.1-4.1 7.8-8 10.4-10.8 1.3-1.3 2.3-2.5 3.1-3.3.7-.8 1.2-1.2 1.2-1.2s-.3.5-1 1.3-1.7 2-3 3.4c-2.5 2.9-6.2 6.8-10.3 10.9-4.1 4.2-8 7.8-10.9 10.3-1.4 1.3-2.6 2.3-3.4 3-.9.8-1.3 1.2-1.4 1.1z" fill="#e0e0e0"/><path d="m101.8 92.2-9.8-3s-2.6 8.2-11.1 5.7c-4.4-1.3-5.8-4.9-6.1-7.4-.3-2.9 1-5.7 3.2-7.7 2.5-2.2 6.9-3.6 13.1-.4l6.9-22-9.6-3-4 12.9s-14.6-.7-19.3 14.2c-4.5 14.3 7.3 21.6 12.8 23.3 4.1 1.3 18.7 4.7 23.9-12.6z" fill="#f5f5f5"/><path d="m90.8 42h10.3v9.6h-10.3z" fill="#f5f5f5" transform="matrix(-.9546 -.2978 .2978 -.9546 173.6486 120.0265)"/><path d="m128.7 67.4 3.9-1s-.9-3.3 2.5-4.2c1.8-.5 3 .4 3.6 1.2.7.9.9 2.1.6 3.2-.4 1.3-1.6 2.6-4.3 2.9l2.3 8.8 3.9-1-1.4-5.2s5.1-2.8 3.5-8.8c-1.5-5.7-7-5.7-9.2-5.1-1.7.4-7.3 2.3-5.4 9.2z" fill="#ebebeb"/><path d="m138.2 79.5h4.1v3.8h-4.1z" fill="#ebebeb" transform="matrix(.9669 -.2551 .2551 .9669 -16.1217 38.4606)"/><path d="m451.5 168.6 3.8 1.4s1.2-3.2 4.5-2c1.7.6 2.2 2 2.3 3 .1 1.2-.5 2.3-1.4 3-1 .8-2.8 1.3-5.2-.1l-3.1 8.6 3.8 1.4 1.8-5s5.8.5 7.9-5.3c2-5.6-2.5-8.7-4.6-9.4-1.7-.7-7.4-2.3-9.8 4.4z" fill="#ebebeb"/><path d="m451 184.8h4.1v3.8h-4.1z" fill="#ebebeb" transform="matrix(.9402 .3406 -.3406 .9402 90.6692 -143.1477)"/><path d="m48.3 212.1 8-3.1s-2.6-6.8 4.4-9.6c3.6-1.5 6.4.2 7.9 1.7 1.7 1.8 2.4 4.3 1.9 6.7-.5 2.8-2.7 6-8.5 7.1l7 18.1 8-3.1-4.1-10.6s10-7.2 5.3-19.5c-4.5-11.8-16.1-10.4-20.6-8.7-3.5 1.5-15 6.9-9.3 21z" fill="#f5f5f5"/><path d="m71.6 235.1h8.6v8.1h-8.6z" fill="#f5f5f5" transform="matrix(.9331 -.3595 .3595 .9331 -80.8839 43.2739)"/><path d="m454.7 242.6-5.7 2.2s1.8 4.8-3.1 6.8c-2.6 1-4.6-.1-5.6-1.2-1.2-1.3-1.7-3.1-1.4-4.8.4-2 1.9-4.2 6-5l-5-12.8-5.6 2.2 2.9 7.5s-7.1 5.1-3.8 13.8c3.2 8.3 11.4 7.4 14.6 6.2 2.5-1 10.7-4.8 6.7-14.9z" fill="#f5f5f5"/><path d="m432 220.7h6.1v5.7h-6.1z" fill="#f5f5f5" transform="matrix(-.9331 .3595 -.3595 -.9331 921.4157 275.6906)"/><path d="m470.8 463.8c0 .1-98.9.3-220.8.3-122 0-220.8-.1-220.8-.3s98.8-.3 220.8-.3c121.9 0 220.8.1 220.8.3z" fill="#263238"/><path d="m92.6 437.8c.9-3.7-1.5-7.4-4.2-10-2.7-2.7-5.9-5.1-7.3-8.6-2.3-5.7.8-13.1-3.1-17.9-2.3-2.8-6.4-3.7-8.4-6.7-1.1-1.6-1.4-3.5-1.8-5.4-2.1-9.4-6.9-18.3-13.5-25.3-.5 8.4 1.4 16.9 5.3 24.4 1.6 3 3.5 5.9 4 9.3.8 5.4-2.2 11-.9 16.4 1.5 6.1 8.4 10.2 8.7 16.5.3 5.3-4.4 10-4 15.3.1 2.3 1.2 4.4 2.4 6.3 4.1 6.8 10.1 11.5 19.3 11.4l11.2.4z" fill="#eb0a07"/><path d="m91.9 437.4c.9-3.7-1.5-7.4-4.2-10-2.7-2.7-5.9-5.1-7.3-8.6-2.3-5.7.8-13.1-3.1-17.9-2.3-2.8-6.4-3.7-8.4-6.7-1.1-1.6-1.4-3.5-1.8-5.4-2.1-9.4-6.9-18.3-13.5-25.3-.5 8.4 1.4 16.9 5.3 24.4 1.6 3 3.5 5.9 4 9.3.8 5.4-2.2 11-.9 16.4 1.5 6.1 8.4 10.2 8.7 16.5.3 5.3-4.4 10-4 15.3.1 2.3 1.2 4.4 2.4 6.3 4.1 6.8 10.1 11.5 19.3 11.4l11.2.4z" fill="#424242" opacity=".3"/><path d="m102.5 464s1.1.2 3.1-.1c1-.1 2.2-.4 3.6-.9s3-1.2 4.5-2.5c.7-.6 1.5-1.4 1.8-2.5.4-1 .5-2.2.5-3.3.1-1.2.1-2.4.3-3.6s.7-2.4 1.4-3.6c1.3-2.3 3.5-4.5 4.2-7.7.8-3.1.2-6.4-.3-9.8s-1-7 .3-10.5c1.2-3.5 3.7-6.7 4.9-10.6 1.2-4 .7-8.3.9-12.5.1-2.1.5-4.2 1.5-6.2.9-2 2.2-3.9 3.1-5.9 2-4.2 2.3-9 2.9-13.7.3-2.4.5-4.7.8-7.2.3-2.4.5-4.8 1.2-7.2.7-2.3 1.7-4.6 2.7-6.9.5-1.2 1-2.3 1.3-3.6.2-1.3.3-2.6.4-3.9.1-2.6 0-5.2-.3-7.8s-.8-5.1-1-7.7c0-.2 0-.3-.1-.4l-.1-.5-.5.2c-2.4 1.2-4.5 3-6 5.1-1.6 2.1-2.8 4.4-3.7 6.8-1.9 4.8-2.5 9.9-3.5 14.7-.9 4.8-2.1 9.5-4.6 13.5-1.2 2-2.7 3.8-4 5.8-1.3 1.9-2.4 4.1-2.8 6.4-.7 4.7 1.9 8.9 1.4 13.1-.2 2.1-1 4-2 5.8s-2.2 3.4-3.3 5.1-2.2 3.4-3 5.2-1.3 3.7-1.4 5.6c-.3 3.8.3 7.4 0 10.7-.2 3.4-1.4 6.5-2.8 9.2-1.4 2.8-2.9 5.2-4.1 7.7-.6 1.2-1.2 2.4-1.7 3.6s-.8 2.4-1 3.5c-.4 2.3-.3 4.5-.1 6.4.5 3.8 1.9 6.6 3.2 8.2.3.4.6.7.9 1s.5.5.7.6c.5.3.7.4.7.4 0-.1-.9-.6-2.2-2.1-1.2-1.6-2.6-4.3-3-8.1-.2-1.9-.2-4 .1-6.3.2-1.1.5-2.3 1-3.5s1.1-2.3 1.7-3.5c1.3-2.4 2.8-4.9 4.2-7.6 1.4-2.8 2.6-5.9 2.9-9.4s-.2-7 .1-10.7c.1-1.8.6-3.7 1.3-5.4.8-1.7 1.8-3.4 3-5.1 1.1-1.7 2.3-3.3 3.4-5.1 1-1.8 1.9-3.8 2.1-6 .5-4.5-2.1-8.7-1.4-13.1.3-2.2 1.4-4.2 2.7-6.1s2.8-3.7 4-5.8c2.5-4.1 3.8-8.9 4.7-13.8 1-4.8 1.6-9.8 3.5-14.5.9-2.3 2.1-4.6 3.6-6.6s3.5-3.7 5.8-4.9l-.5-.3c0 .1 0 .3.1.5.3 2.6.7 5.2 1 7.7.3 2.6.4 5.1.3 7.6-.1 1.2-.1 2.6-.3 3.7-.3 1.2-.8 2.3-1.3 3.5-1 2.3-2 4.6-2.7 7-.8 2.4-1 4.9-1.3 7.3s-.5 4.8-.8 7.2c-.5 4.7-.9 9.4-2.8 13.5-.9 2-2.2 3.9-3.1 5.9-1 2-1.4 4.3-1.5 6.4-.2 4.3.3 8.5-.9 12.4-1.2 3.8-3.6 7-4.8 10.6-1.3 3.7-.8 7.4-.2 10.8.5 3.4 1.1 6.7.4 9.6-.6 3-2.8 5.2-4.1 7.6-.7 1.2-1.2 2.5-1.4 3.7-.2 1.3-.2 2.5-.2 3.7-.1 1.2-.1 2.3-.5 3.3s-1 1.7-1.7 2.4c-1.5 1.2-3 2-4.4 2.5s-2.6.8-3.6 1-1.8.2-2.3.2c-.6-.2-.9-.2-.9-.2z" fill="#263238"/><path d="m137.9 332.1s0 .1-.1.3c-.1.3-.1.6-.2 1-.2.9-.5 2.2-.9 3.9s-1.5 3.5-2.3 5.8c-.9 2.3-1.8 5-2.7 7.9-.9 3-1.6 6.3-2.4 9.9-.8 3.5-1.6 7.3-3.6 10.9-.9 1.8-2 3.7-2.8 5.7s-1.3 4.2-1.6 6.4c-.5 4.4-1.4 8.9-2.4 13.5-2.2 9.2-4.4 17.9-6.3 25.9-2 7.9-3.8 15.1-5.3 21.1s-2.7 10.8-3.5 14.2c-.4 1.6-.7 2.9-.9 3.9-.1.4-.2.7-.2 1 0 .2-.1.3-.1.4 0 0 .1-.1.1-.3.1-.3.2-.6.3-1 .3-.9.6-2.2 1.1-3.8.9-3.4 2.2-8.2 3.7-14.2 1.6-6 3.4-13.1 5.5-21.1 2-8 4.1-16.7 6.4-25.9 1.1-4.6 1.9-9.2 2.4-13.6.3-2.2.7-4.3 1.6-6.3.8-2 1.8-3.8 2.7-5.6 2-3.7 2.8-7.6 3.6-11.1.8-3.6 1.5-6.9 2.3-9.8.8-3 1.7-5.6 2.5-7.9s1.8-4.2 2.2-5.9.6-3 .8-3.9c.1-.4.1-.8.2-1-.1-.3-.1-.4-.1-.4z" fill="#263238"/><path d="m104.5 464c7.3-4.3 9.4-17.5 6.4-25.5-3.1-7.9-8.4-15.2-9.2-23.7-.6-6.5 1.5-13.2 0-19.6-2-8.6-10.4-15.2-10.3-24.1.1-5 2.9-9.6 2.6-14.6-.3-6.1-4.9-10.9-7.8-16.2-4.4-8.2-4.7-17.9-6.2-27-1.5-9.2-5-19-13.1-23.5-1.2 7.8-3.3 13.1-2.6 23.7.2 3.8 4.6 11 5.2 19.4.4 5 .6 9.9.9 14.9.3 4.8.6 9.8 2.3 14.3 1.3 3.5 3.5 6.6 4.4 10.2 1.9 6.7-.6 14 .9 20.8 1.3 5.8 5.3 10.8 6.1 16.6 1.1 8.2-4.2 16.8-1.5 24.6 1.4 3.9 4.6 7 5.5 11 .7 3.1-.1 6.4.6 9.6 1 5.1 10.7 9 15.8 8.7" fill="#eb0a07"/><path d="m68.8 297.7v.4c0 .3.1.7.2 1.3.2 1.1.4 2.8.7 4.9.4 2.1 1.5 4.6 2.4 7.5s1.9 6.3 2.7 10c.8 3.8 1.5 7.9 2.3 12.4.8 4.4 1.5 9.3 3.7 14 1 2.3 2.2 4.7 3 7.2.9 2.5 1.3 5.2 1.5 7.9.4 5.5 1.1 11.3 2.1 17 2.2 11.5 4.4 22.5 6.3 32.5 2 10 3.9 18.9 5.4 26.5 1.6 7.5 2.8 13.6 3.7 17.9.4 2.1.8 3.7 1.1 4.8.1.5.2.9.3 1.3.1.3.1.4.1.4s0-.2-.1-.4c-.1-.3-.1-.7-.2-1.3-.2-1.2-.5-2.8-.9-4.9-.8-4.3-2-10.4-3.5-17.9-1.5-7.6-3.3-16.6-5.3-26.5-1.9-10-4-21-6.3-32.5-1-5.8-1.8-11.4-2.2-17-.3-2.8-.7-5.5-1.6-8.1-.9-2.5-2.1-4.9-3.1-7.2-2.2-4.6-3-9.4-3.8-13.8-.8-4.5-1.5-8.6-2.4-12.4s-1.8-7.1-2.8-10c-.9-2.9-2.1-5.3-2.5-7.4s-.7-3.8-.9-4.9c-.1-.5-.2-.9-.2-1.3.4-.3.3-.4.3-.4z" fill="#263238"/><path d="m421.5 88.8h-4s0 3.3-3.5 3.4c-1.8 0-2.7-1.2-3.1-2.1-.4-1.1-.3-2.2.3-3.2.7-1.1 2.2-2.1 4.8-1.7v-9h-3.9v5.3s-5.5 1.4-5.5 7.5c0 5.8 5.2 7.2 7.5 7.2 1.6 0 7.4-.4 7.4-7.4z" fill="#eb0a07"/><path d="m412 70.7h4v3.7h-4z" fill="#eb0a07" transform="matrix(-1 0 0 -1 828.0702 145.1058)"/><path d="m443.3 83.4s0-.2 0-.5c0-.4 0-.9 0-1.5 0-.3 0-.7 0-1.1-.1-.4-.1-.8-.2-1.3s-.1-1-.2-1.5-.3-1.1-.4-1.7c-.6-2.4-1.7-5.3-3.6-8.3s-4.6-6-8.3-8.5-8.4-4.3-13.6-4.8c-1.3 0-2.6-.2-4-.1-.7 0-1.4 0-2 .1-.7.1-1.4.2-2.1.3-2.7.6-5.5 1.4-8.1 2.8s-5.1 3.1-7.3 5.3-4 4.8-5.5 7.6c-1.5 2.9-2.5 6-2.9 9.3-.2.8-.2 1.7-.2 2.5-.1.8-.1 1.7 0 2.5.1 1.7.3 3.4.6 5 .8 3.6 2.2 7 4.2 10v-.3c-1.4 3.5-2.8 6.9-4.1 10.2l-.2.6.6-.2c3.7-1 7.4-2 10.9-3l-.3-.1c3.8 2.9 8.1 4.7 12.5 5.4 2.2.4 4.3.5 6.4.4 1 0 2.1-.1 3.1-.3.5-.1 1-.2 1.5-.2.5-.1 1-.2 1.4-.4 7.7-2 13.3-6.7 16.6-11.4 1.7-2.3 2.8-4.7 3.6-6.8.2-.5.4-1 .5-1.5s.3-1 .4-1.4c.1-.5.2-.9.3-1.3s.1-.8.2-1.2c.1-.8.2-1.4.3-2 0-.6 0-1.1.1-1.5 0-.4 0-.7 0-.9-.2 0-.2-.2-.2-.2v.3c0 .2 0 .5-.1.9 0 .4-.1.9-.1 1.5s-.2 1.3-.3 2c-.6 3-1.7 7.5-5.1 12.1-3.2 4.6-8.9 9.2-16.4 11.1-.5.1-.9.3-1.4.3-.5.1-1 .1-1.5.2-1 .2-2 .2-3 .3-2 .1-4.1 0-6.3-.4-4.2-.8-8.5-2.6-12.2-5.4l-.1-.1h-.1c-3.5 1-7.2 2-10.9 3l.4.4c1.3-3.3 2.7-6.7 4.1-10.2l.1-.2-.1-.1c-1.9-2.9-3.4-6.3-4.1-9.8-.3-1.6-.6-3.3-.6-4.9 0-.8 0-1.6 0-2.5 0-.8 0-1.6.2-2.4.4-3.2 1.4-6.3 2.8-9.1s3.2-5.3 5.4-7.5c2.2-2.1 4.6-3.9 7.1-5.2 2.5-1.4 5.3-2.2 7.9-2.7.7-.1 1.3-.2 2-.3s1.3-.1 2-.1c1.3-.1 2.6 0 3.9.1 5.1.5 9.7 2.3 13.4 4.7s6.4 5.4 8.3 8.3 3 5.8 3.7 8.1c.2.6.3 1.2.4 1.7s.2 1 .2 1.5c.1.5.1.9.2 1.3 0 .4.1.8.1 1.1 0 .6.1 1.1.1 1.5-.1.4 0 .5 0 .5z" fill="#eb0a07"/><path d="m145.1 201.4h57.8s0-48.5 50.4-49.4c26.2-.5 39.7 16.7 45.3 29.8 6.4 15.3 4.5 32.6-4.1 46.8-9.8 16.2-30.9 32.4-69.8 25.5l-.4 128.7h57.1v-76.3s80.1-20.7 80.1-109c0-84.5-68.3-102.7-105-103.9-20.4-.7-27.8-1.5-53.1 2.1-32.3 4.6-59 42-58.3 105.7z" fill="#bc0017"/><path d="m224 409.6h58v54.1h-58z" fill="#bc0017"/><path d="m224 409.6h58v54.1h-58z" opacity=".1"/><path d="m145.2 201.4h57.8s0-48.5 50.4-49.4c26.2-.5 39.7 16.7 45.3 29.8 6.4 15.3 4.5 32.6-4.1 46.8-9.8 16.2-30.9 32.4-69.8 25.5l-.4 128.7h57.1v-76.3s80.1-20.7 80.1-109c0-84.5-68.3-102.7-105-103.9-20.4-.7-27.8-1.5-53.1 2.1-32.2 4.7-59 42-58.3 105.7z" fill="#eb0a07" opacity=".1"/><path d="m121.1 201.4h57.8s0-48.5 50.4-49.4c26.2-.5 39.7 16.7 45.3 29.8 6.4 15.3 4.5 32.6-4.1 46.8-9.8 16.2-31.3 30.8-70.2 24v130.2h57.1v-76.3s80.1-20.7 80.1-109c0-84.5-75.7-104.1-108.2-104.1-24.8.1-109.2 6.1-108.2 108z" fill="#eb0a07"/><path d="m120.7 200.7h57.8s0-48.5 50.4-49.4c26.2-.5 39.7 16.7 45.3 29.8 6.4 15.3 4.5 32.6-4.1 46.8-9.8 16.2-31.3 30.8-70.2 24v130.2h57.1v-76.3s80.1-20.7 80.1-109c0-84.5-75.7-104.1-108.2-104.1-24.9.1-109.3 6.1-108.2 108z" fill="#eb0a07" opacity=".3"/><path d="m200.2 409.6h58v54.1h-58z" fill="#eb0a07"/><path d="m200.3 410.1h58v54.1h-58z" fill="#eb0a07" opacity=".3"/><path d="m235.8 152.3s-.3 0-.9-.1c-.6 0-1.4-.2-2.5-.2-2.1-.1-5.3-.1-9.1.4s-8.3 1.4-13.1 3.1c-2.4.9-4.9 1.8-7.3 3.1-2.5 1.2-4.9 2.8-7.1 4.6-2.3 1.8-4.2 4-5.8 6.2-1.7 2.2-3.1 4.4-4.4 6.6-2.5 4.4-4.1 8.7-5.2 12.4s-1.5 6.8-1.7 8.9c-.1 1.1-.2 1.9-.2 2.5s-.1.9-.1.9 0-.3 0-.9 0-1.4.1-2.5c.1-2.1.6-5.3 1.6-9s2.7-8 5.1-12.5c1.3-2.2 2.7-4.5 4.4-6.7s3.6-4.4 5.9-6.3 4.7-3.4 7.2-4.7 5-2.3 7.4-3.1c4.8-1.6 9.4-2.6 13.2-3s7-.4 9.1-.2c1.1 0 1.9.2 2.5.3s.9.2.9.2z" fill="#263238"/><path d="m322.8 142s-.1-.1-.2-.2c-.1-.2-.3-.4-.5-.7-.5-.6-1.1-1.5-1.9-2.7-.4-.6-.9-1.3-1.4-1.9-.6-.7-1.2-1.4-1.8-2.2s-1.3-1.6-2.1-2.5-1.6-1.7-2.5-2.7c-.9-.9-1.8-1.9-2.8-2.9-1-.9-2.1-1.9-3.2-2.9-.6-.5-1.1-1-1.7-1.5s-1.2-1-1.9-1.5c-1.3-1-2.5-2-3.9-3-5.5-4-11.9-7.8-18.9-11.2-1.8-.8-3.5-1.6-5.3-2.4-1.8-.7-3.5-1.4-5.2-2-1.7-.7-3.4-1.2-5.1-1.8-1.7-.5-3.3-1.1-5-1.5-1.6-.4-3.2-.8-4.8-1.3-1.5-.4-3.1-.7-4.6-1s-2.9-.6-4.3-.8-2.7-.4-4-.6c-2.5-.4-4.8-.5-6.9-.7-1-.1-2-.2-2.8-.2-.9 0-1.7 0-2.4-.1-1.4 0-2.5-.1-3.3-.1-.4 0-.6 0-.9 0-.2 0-.3 0-.3 0h.3.9 3.3 2.4c.9 0 1.8.1 2.8.2 2 .2 4.4.2 6.9.6 1.3.2 2.6.4 4 .5 1.4.2 2.8.5 4.3.8s3 .5 4.6 1l4.8 1.2c1.7.4 3.3 1 5 1.5 1.7.6 3.4 1.1 5.1 1.8s3.5 1.3 5.3 2c1.7.8 3.5 1.6 5.3 2.4 7.1 3.4 13.5 7.2 19 11.3 1.4 1 2.6 2.1 3.9 3.1.6.5 1.2 1 1.9 1.5.6.5 1.1 1 1.7 1.5 1.1 1 2.2 2 3.2 3s1.9 2 2.8 2.9 1.7 1.8 2.5 2.7c.7.9 1.4 1.8 2 2.6s1.2 1.5 1.8 2.2c.5.7.9 1.4 1.3 2 .8 1.2 1.4 2.1 1.8 2.8.2.3.3.5.5.7.3 0 .3.1.3.1z" fill="#263238"/><path d="m316.8 266s-.1.2-.4.6-.8 1-1.3 1.7c-.6.7-1.3 1.6-2.2 2.6s-1.8 2.1-3 3.3c-1.1 1.2-2.4 2.5-3.8 3.8-1.4 1.4-2.9 2.7-4.6 4.2-3.3 2.9-7.1 5.8-11.2 8.7-4.2 2.9-8.3 5.3-12.1 7.4-1.9 1-3.8 2-5.5 2.8-1.7.9-3.4 1.6-4.9 2.2-1.5.7-2.9 1.2-4.1 1.6-1.2.5-2.3.8-3.2 1.1-.8.3-1.5.5-2 .7-.5.1-.7.2-.7.2s.2-.1.7-.3 1.2-.4 2-.7c.9-.3 1.9-.7 3.1-1.2s2.6-1 4.1-1.7 3.2-1.4 4.9-2.2c1.8-.8 3.6-1.8 5.5-2.8 3.8-2.1 7.9-4.6 12.1-7.4 4.1-2.9 7.9-5.8 11.2-8.6 1.6-1.4 3.2-2.8 4.6-4.1s2.7-2.6 3.8-3.8c1.2-1.2 2.2-2.3 3.1-3.2.9-1 1.6-1.8 2.2-2.5s1.1-1.2 1.4-1.6c.1-.6.3-.8.3-.8z" fill="#263238"/><path d="m256.3 378.3c-.1 0-.3-16.1-.3-35.9s.1-35.9.3-35.9c.1 0 .3 16.1.3 35.9s-.1 35.9-.3 35.9z" fill="#263238"/><path d="m258.5 460.1c-.1 0-.3-11.3-.3-25.2s.1-25.2.3-25.2c.1 0 .3 11.3.3 25.2s-.1 25.2-.3 25.2z" fill="#263238"/><path d="m315.4 193.7c-1 2 2.7 3.6 4.9 4.3s4.5.6 6.7.5c3-.2 6.1-.4 8.7-1.9 2.3-1.3 4-3.5 5.2-5.9s1.9-4.9 2.6-7.5c0 0-23.6 1.5-28.1 10.5z" fill="#e8505b"/><path d="m315.4 193.7c-1 2 2.7 3.6 4.9 4.3s4.5.6 6.7.5c3-.2 6.1-.4 8.7-1.9 2.3-1.3 4-3.5 5.2-5.9s1.9-4.9 2.6-7.5c0 0-23.6 1.5-28.1 10.5z" opacity=".4"/><path d="m382.1 187.3c3.9 2.8 8.6 4.2 13.3 4.2 2.3 0 4.7-.5 6.4-2 .8-.7 1.3-1.6 2.1-2.3.5-.5 1.2-.8 1.7-1.3s.9-1.2.7-1.9-.7-1.9-1.4-2.2c-2.7-1.5-6-1.5-9.1-1.4s-6.2.8-9.1 1.8c-2.4.8-5 2-6.2 4.2" fill="#e8505b"/><path d="m406.4 184c-.2-.7-1.1-1.7-1.8-2-2.7-1.5-5.6-1.7-8.7-1.6s-6.2.8-9.1 1.8c-2.4.8-5 2-6.2 4.2l1.5.9c3.9 2.8 8.6 4.2 13.3 4.2 2.3 0 4.7-.5 6.4-2 .8-.7 1.3-1.6 2.1-2.3.5-.5 1.2-.8 1.7-1.3.6-.5.9-1.2.8-1.9z" opacity=".4"/><path d="m336 223.2 49.9.7c.4 0 .8-.4.6-.8l-5.8-18.2s.9-9.1 2.1-20.1c1.8-16.6 4.2-37.6 4.2-37.5-3.4-9.6-23.5-11.2-23.5-11.2l-22.9 1.4-.8-1.3-6.6 3.1c-1.4.7-2.8 1.5-4.1 2.3-4.4 2.9-14.9 9.6-16.8 17.1-4.4 17.2 3.1 36.5 3.1 36.5l4.8-3.8c1.3-1 2.5-1.8 3.8-2.6l9.7 25.9s-2 1.2-2.1 3.3c-.3 2 .9 4.5 4.4 5.2" fill="#eb0a07"/><path d="m357.4 192.7c1.6-8.5.7-17.2-.1-25.8-2.8 7-2.7 15-5.6 21.9-.3.8-.7 1.5-.8 2.3s.1 1.7.7 2.3c.8.7 2 .3 3.1.2 1.1-.2 1.7-.6 2.7-.9" opacity=".3"/><path d="m339 212.4c4 1.4 8.3-1.2 12.5-1.7 2.8-.3 5.6.3 8.4.8 5.6.9 11.4 1.1 17 .4.9-.1 1.7-.2 2.5-.6s1.4-1.6 1.3-2.5c-9.4-1-18.8-1.5-28.2-2.5-2.4-.2-4.8-.5-7.1.2-2.8.9-5 3.1-7 5.3" opacity=".4"/><path d="m404.9 180.7c-4.1-9.2-18.4-34.5-18.4-34.5l-11.1 13.9 2.6 27.4s5.9-6.6 22.3-6.7c3.8 0 6.1 3.2 6.1 3.2z" fill="#eb0a07"/><path d="m338.2 175.9c-.1 0-1-2.6-1.9-6-.9-3.3-1.5-6.1-1.4-6.1s1 2.6 1.9 6c1 3.3 1.6 6 1.4 6.1z" fill="#263238"/><path d="m374.6 158.3s.4.3 1 .9 1.5 1.5 2.5 2.7c1.9 2.4 4.3 6.2 5.3 10.9.5 2.3.6 4.6.3 6.7-.3 2-.6 3.8-.9 5.4-.3 1.5-.4 2.8-.5 3.6-.1.9-.1 1.3-.1 1.3s-.1-.5-.1-1.3c0-.9.1-2.1.3-3.7.2-1.5.6-3.4.8-5.4s.1-4.3-.4-6.5c-1-4.6-3.2-8.3-5.1-10.7-1.8-2.6-3.2-3.9-3.1-3.9z" fill="#263238"/><path d="m364.4 221s-.4.1-1.1.3c-.4.1-.8.2-1.3.3s-1.1.2-1.7.2c-1.3.1-2.9.1-4.6 0-1.7-.2-3.6-.5-5.5-1.1s-3.6-1.4-5.2-2.2c-1.5-.9-2.8-1.7-3.8-2.6-.5-.4-.9-.8-1.3-1.2-.4-.3-.7-.7-.9-.9-.5-.5-.7-.9-.7-.9.1-.1 1.1 1.1 3.2 2.7 1 .8 2.3 1.6 3.8 2.4s3.2 1.5 5.1 2.1 3.7.9 5.4 1.1 3.2.2 4.5.1c2.5 0 4.1-.4 4.1-.3z" fill="#263238"/><path d="m379.8 215.3c.1 0 .3.5.4 1.5.1.9.1 2.3-.3 3.6-.4 1.4-1.2 2.5-2 3.1-.7.6-1.3.8-1.3.8 0-.1.4-.4 1.1-1 .6-.6 1.3-1.7 1.7-3 .8-2.7.2-5 .4-5z" fill="#263238"/><path d="m377.1 218.8c.1 0 .4 1.4-.3 3.1-.6 1.7-1.8 2.6-1.9 2.4-.1-.1.8-1.1 1.4-2.6s.6-2.9.8-2.9z" fill="#263238"/><path d="m368.1 185.9c.1.1-.8 1.2-1.8 2.6s-1.6 2.6-1.7 2.6.3-1.4 1.3-2.9 2.2-2.4 2.2-2.3z" fill="#263238"/><path d="m333.9 161.7c-.1.1-.8-.6-2.2-1.5s-3.3-2-5.7-2.9c-2.3-.9-4.5-1.3-6.2-1.5-1.6-.2-2.6-.3-2.6-.3 0-.1 1-.2 2.7 0 1.6.1 3.9.5 6.3 1.4s4.4 2.1 5.7 3.1c1.4.9 2.1 1.7 2 1.7z" fill="#263238"/><path d="m386.5 145.9c.1.1-2.6 1.8-5.1 4.7s-3.6 5.9-3.8 5.8c-.1 0 .2-.8.7-1.9.5-1.2 1.4-2.7 2.7-4.2s2.6-2.6 3.7-3.4 1.8-1.1 1.8-1z" fill="#263238"/><path d="m365.9 137.6s.1.2.2.5.3.8.5 1.4c.3 1.2.5 3.2 0 5.4s-1.8 4.8-4.1 6.9-5.7 3.3-9.2 3.3-6.9-1.2-9.3-3.1c-2.5-1.8-4.1-4.2-5.1-6.2-1-2.1-1.5-3.9-1.7-5.1-.1-.6-.2-1.1-.2-1.5 0-.3 0-.5 0-.5.1 0 .1.7.4 1.9s.8 3 1.8 5c1.1 2 2.7 4.2 5.1 6s5.6 2.9 9 3c3.4 0 6.7-1.2 8.9-3.1 2.2-2 3.5-4.5 4-6.6.5-2.2.4-4.1.2-5.3-.2-1.3-.5-2-.5-2z" fill="#263238"/><path d="m369.4 187.7c0-.5-.1-1.1-.5-1.3-.3-.2-.6-.1-.9 0s-.5.4-.7.6c-1.2 1.3-2.1 2.6-2.7 4.3l4.9-.4c0-1.1 0-2.2-.1-3.2z" opacity=".3"/><path d="m385.7 177.4c-.4-2.8-1.8-5.4-3.6-7.6 2.1 6.9 1.4 10.8.2 15.6l.3-.7c1.4-2.8 3.5-4.5 3.1-7.3z" opacity=".3"/><path d="m375.9 409.9-3 44.8-19.5-.2-3-46.6z" fill="#ffbe9d"/><path d="m373.5 448.8v1.3s22 8.8 22.2 13l-43.7-.3.7-14.5c6.5 3.1 13.3 3.5 20.8.5z" fill="#eb0a07"/><path d="m357.1 453c-.8.2-1.4 1.2-1.2 2 .2.9 1.1 1.5 2 1.3.8-.2 1.6-1.3 1.3-2.2-.3-.8-1.4-1.5-2.2-1.1" fill="#fff"/><path d="m352 462.9.2-3.5 41.8 1.5s1.9.9 1.7 2.2z" fill="#263238"/><path d="m373.6 450.2c0 .2-1.1.3-2.1 1-1.1.7-1.6 1.6-1.8 1.5-.2 0 .1-1.3 1.4-2.1s2.6-.6 2.5-.4z" fill="#263238"/><path d="m378.2 452.1c0 .2-.9.6-1.6 1.5-.8.9-.9 1.8-1.2 1.8-.2 0-.3-1.2.6-2.3s2.2-1.2 2.2-1z" fill="#263238"/><path d="m380.8 457.6c-.2 0-.5-1 .1-2.2.5-1.2 1.6-1.6 1.6-1.4.1.2-.5.8-1 1.8-.4.9-.5 1.8-.7 1.8z" fill="#263238"/><path d="m372.4 81.9c1.1-2.8-.2-6.2-2.7-8-2.4-1.8-5.7-2.2-8.7-1.7s-5.8 1.7-8.5 3c-2.5-2.5-6.5-3.5-9.8-2.4-3.4 1.1-6 4.2-6.5 7.7-2.1-.5-4.6.2-6.1 1.8s-2 4.1-1.2 6.2l13.5 4.7 14.8 26c4.3 3.7 11.4 3.6 15.6-.2s5-10.8 1.8-15.5c.8-.7 1.5-1.6 2.1-2.6 2.3-1.4 4.2-3.7 4.8-6.4 1.1-5.6-3.3-12-9.1-12.6z" fill="#263238"/><path d="m363.4 136c-.8-4.2-1.4-7.1-1.4-7.1s8-3.1 7.4-14.2c-.3-5.5-2.4-14.3-4.3-21.4-1.8-6.4-7.7-13.4-14-11.4l-19 9.3c-1.9.6-2.2 2.4-1.8 4.4v1l7.4 30.7 3.1 13.7c1.4 5.8 7 9.6 12.9 8.8 6.6-1 11-7.3 9.7-13.8z" fill="#ffbe9d"/><path d="m364.9 100.7c.2.7-.3 1.5-1 1.7-.8.2-1.5-.2-1.7-.9s.3-1.5 1-1.7c.8-.2 1.6.2 1.7.9z" fill="#263238"/><path d="m364.1 98.6c-.1.2-1.3-.3-2.8 0s-2.4 1.3-2.6 1.1c-.1-.1 0-.4.4-.9.4-.4 1.1-.9 2.1-1.1.9-.2 1.8 0 2.3.2.5.3.7.6.6.7z" fill="#263238"/><path d="m350.5 104c.2.7-.3 1.5-1 1.7-.8.2-1.5-.2-1.7-.9s.3-1.5 1-1.7 1.5.2 1.7.9z" fill="#263238"/><path d="m349.7 102.1c-.1.2-1.3-.3-2.8 0s-2.4 1.3-2.6 1.1c-.1-.1 0-.4.4-.9.4-.4 1.1-.9 2-1.1s1.8 0 2.3.2c.6.3.8.6.7.7z" fill="#263238"/><path d="m357.3 111.5c0-.1.9-.4 2.3-.9.4-.1.7-.3.7-.5 0-.3-.2-.7-.5-1.1-.5-.8-1.1-1.7-1.7-2.7-2.4-3.8-4.3-6.9-4.1-7s2.2 2.9 4.7 6.7c.6.9 1.1 1.8 1.7 2.7.2.4.6.8.5 1.4 0 .3-.3.6-.5.7s-.4.2-.6.2c-1.6.4-2.5.6-2.5.5z" fill="#263238"/><path d="m362 128.9s-7.1 2-15.2-.8c0 0 5.2 6.8 15.8 3.6z" fill="#eb996e"/><path d="m350 100c-.1.4-1.6.4-3.4.8s-3.1 1.1-3.4.7c-.1-.2.1-.6.6-1 .5-.5 1.4-1 2.4-1.2s2-.2 2.7 0c.8.2 1.2.5 1.1.7z" fill="#263238"/><path d="m363.6 93.9c-.2.4-1.5.3-3 .6-1.5.2-2.6.8-3 .5-.2-.1 0-.5.4-1 .5-.4 1.3-.9 2.3-1.1s1.9-.1 2.5.2.9.6.8.8z" fill="#263238"/><path d="m336.7 84.1c.4 2.2 1.9 4.1 3.8 5.1s4.3 1.2 6.4.3c1.6-.6 3.2-1.8 4.8-1.3 1.7.6 2.2 2.9 3.8 3.7 2.2 1.3 4.9-.9 7.5-.7 2 .2 3.5 1.7 5.1 2.9 1.5 1.2 3.7 2.3 5.4 1.3-.5-1.7-.9-3.3-1.8-4.8-.8-1.5-2.1-2.8-3.7-3.5-.9-.3-1.8-.5-2.7-.9-1.8-.9-2.6-3-3.9-4.6-1.7-2-4.4-3.1-7-2.8-2.2.2-4.2 1.3-6.4 1.2-1.6-.1-3.1-.8-4.8-.8-3.1.1-5.5 2.8-7.2 5.4" fill="#263238"/><path d="m347.2 86.4c-1.4-.1-4.4-.4-5.3-1.4-2.1-2.2-5.2-3.4-8-2.6-2.8.7-5.1 3.5-5 6.7-3.4.7-6.3 3.6-7.3 7.2s0 7.8 2.5 10.5c.6.7 1.6 2.4 1.6 2.4s-1.3 1.6-1.8 2.7c-2.3 5.1 3.9 7 3.9 7 0 3.4 3.2 3.4 5.2 3.4 1.9 0 3.1 5.4 4.7 5.1l-1.6-16.6c.2.1.4.1.7.1 3.8.1 2.8-7.1 1.6-9 1.1-1.4 2.1-2.9 2.8-4.6s.7-5.9.1-7.7c1.4-.2 6.6-3.2 5.9-3.2z" fill="#263238"/><path d="m336.6 111.5c-.6-2.3-3.4-3.3-5.2-1.7-1 .9-1.5 2.3-.9 4.7 1.6 6.4 7.7 3.5 7.7 3.3 0-.1-.9-3.6-1.6-6.3z" fill="#ffbe9d"/><path d="m335.7 115.9s-.1.1-.3.2-.5.3-.8.2c-.7-.1-1.6-1-1.9-2.2-.2-.6-.2-1.2-.1-1.7s.3-.9.6-1.1.6 0 .7.1c.1.2.1.3.2.3 0 0 .1-.1 0-.4-.1-.1-.2-.3-.4-.3-.2-.1-.4-.1-.7 0-.5.2-.8.7-.9 1.3s-.1 1.2.1 1.9c.4 1.3 1.3 2.3 2.3 2.4.5 0 .8-.2 1-.4s.2-.3.2-.3z" fill="#eb996e"/><path d="m371.2 102.5s.6-.4 1.4-1.5c.8-1 1.8-2.7 2-5 .1-1.1.1-2.4-.4-3.7-.4-1.3-1.1-2.6-2.3-3.6-2.2-2-5.9-3-9.2-1.8-.3.1-.6.2-.9.4-.3.1-.5.3-.8.4l-.4.2v-.4c0-.8-.3-1.5-.8-2.1s-1.2-1-1.8-1.3c-1.4-.6-2.9-.6-4.3-.3-2.8.6-5.1 1.9-7.3 2.1-2.2.3-4-.3-5-1-.5-.4-.8-.7-1-1s-.2-.4-.2-.4c.1 0 .3.6 1.3 1.3s2.7 1.1 4.8.8c1-.2 2.2-.5 3.4-1 1.2-.4 2.5-1 3.9-1.3.7-.2 1.5-.3 2.3-.2.8 0 1.6.2 2.3.5.8.3 1.5.8 2 1.4.6.6.9 1.5.9 2.4l-.4-.2c.3-.2.5-.3.8-.5.3-.1.6-.3.9-.4 3.5-1.2 7.4-.2 9.7 1.9 1.2 1.1 2 2.4 2.4 3.8s.5 2.7.3 3.9c-.3 2.4-1.3 4.1-2.2 5.1-.4.5-.8.8-1.1 1-.2.5-.3.6-.3.5z" fill="#455a64"/><path d="m369.9 79.9c0 .1-.7-.5-2.1-.7-.7-.1-1.5-.1-2.5.2-.9.3-1.9.9-2.5 1.8l-.2.4-.2-.4c-.8-2.2-3.2-4.2-6.1-4.5-2.2-.3-4.2.7-5.9 1.7s-3.2 1.9-4.6 2.4-2.7.6-3.5.4c-.4-.1-.7-.2-.9-.3s-.3-.1-.3-.2c0 0 .4.1 1.3.2.8.1 2 0 3.4-.6 1.4-.5 2.8-1.5 4.5-2.5.8-.5 1.8-1 2.8-1.4s2.2-.6 3.4-.4c3.1.3 5.6 2.6 6.5 4.9h-.4c.8-1 1.8-1.7 2.8-1.9 1-.3 1.9-.3 2.6-.1.7.1 1.2.4 1.6.6.1.3.3.4.3.4z" fill="#455a64"/><path d="m356.7 114.5c-.5-.4-1.1-.6-1.8-.5-.6.1-1.3.6-1.7 1.2s0 .1-.1.1c-.1.2-.2.5-.2.8.1.6.5 1.1 1 1.4.8.4 2 .3 2.6-.4.8-.7.9-2 .2-2.6z" fill="#eb0a07"/><path d="m357.2 117.6c-.1 0-.2-.3-.4-.7-.3-.4-.7-.9-1.4-1.2s-1.4-.3-1.9-.2-.8.2-.8.1.2-.3.7-.5 1.4-.2 2.2.1c.8.4 1.3 1 1.5 1.6.2.4.2.8.1.8z" fill="#263238"/><path d="m336.8 118.8s.3.5-.1 1.3c-.2.4-.5.8-1.1 1-.5.2-1.2.1-1.8-.2-.5-.3-.9-.9-1-1.5 0-.6.2-1.1.4-1.4.5-.7 1.1-.7 1.1-.6s-.4.2-.8.8c-.2.3-.3.7-.2 1.1 0 .4.3.8.8 1.1.4.3.9.3 1.3.2s.7-.4.9-.7c.5-.6.4-1.1.5-1.1z" fill="#eb0a07"/><path d="m333.4 118.4c.1 0 0 .3-.5.6-.2.1-.5.2-.8.1s-.6-.3-.8-.7c-.2-.3-.2-.7-.1-1s.3-.5.5-.7c.4-.2.7-.1.7-.1 0 .1-.2.1-.5.4-.3.2-.4.7-.2 1.2s.7.6 1.1.5.6-.3.6-.3z" fill="#eb0a07"/><path d="m344.4 207.3s24.8 1.4 39.4 1.6c11.3.1 16.4-2.9 18.7-10.2 1.9-6.1-2.2-17.8-2.2-17.8-7.7 0-12.4 1.1-17.3 3.4l1.3 5.4-39.9 3.4z" fill="#ffbe9d"/><path d="m392.6 195.3c-.1.1-1.3-2.1-3.7-3.7-2.4-1.7-4.9-2-4.8-2.1 0-.1.6-.1 1.6.1s2.3.7 3.5 1.6c1.3.9 2.2 1.9 2.7 2.7s.7 1.4.7 1.4z" fill="#eb996e"/><path d="m335.3 184.2s-7.7 1.8-13.3 5.6l6 16.3c2 5.3 8.1 8 13 5.2 7.5-4.3 10.2-16.9 10.2-16.9l8.3-35.9-13.7-8.6z" fill="#ffbe9d"/><path d="m345.8 149.9.6-11.8-3.1-12c-.2-.7-.3-1.5.3-1.9s1.4-.4 1.8.1c.8.9 4.8 11.4 4.8 11.4s6.1-3.6 7.1-3.8c1.1-.2 2.4 3.1 2.5 3.3.1.3 0 2.2 0 2.2s3.8.1 4.1.6.4 3.2.4 3.2 1.6.5 1.8 1.7c.3 1.2.8 3.2 0 3.6-.7.4-2.3 1.3-2.3 1.3s-.6 6.1-.8 6.7-3.7 4-3.7 4z" fill="#ffbe9d"/><path d="m333 211.5s.4.2 1.1.5c.8.3 2 .5 3.5.3s3.4-.9 5.1-2.4 3.4-3.5 4.8-6c.7-1.3 1.3-2.6 1.9-4.1.5-1.5.9-3.1 1.3-4.8.8-3.4 1.6-7 2.5-10.9 1.8-7.7 3.8-16.3 6-25.6v-.1l.1-.1c.7-.7 1.4-1.4 2.1-2.1.3-.4.7-.7 1-1.1.2-.2.3-.4.5-.6.1-.1.1-.4.2-.6.3-2 .5-4.1.7-6.2v-.1l.1-.1c.6-.4 1.3-.7 1.9-1.1.1-.1.4-.2.4-.3.1-.1.2-.2.2-.3.1-.3 0-.7 0-1-.1-.7-.3-1.5-.4-2.2-.2-.6-.9-1-1.6-1.3l-.2-.1v-.2c0-.6-.1-1.2-.1-1.8 0-.3-.1-.6-.1-.9 0-.1-.1-.3-.1-.4s0 0-.1-.1c-.1 0-.1-.1-.2-.1-1.1-.3-2.4-.4-3.7-.4h-.3v-.3c0-.6 0-1.3 0-2 0-.2-.1-.4-.2-.7-.1-.2-.2-.5-.3-.7-.2-.5-.5-.9-.8-1.3-.2-.2-.3-.4-.5-.5s-.3-.1-.5-.1c-.5.2-.9.4-1.4.6-1.9 1-3.7 2-5.5 3.1l-.3.2-.1-.3c-.9-2.4-1.9-4.7-2.8-7-.5-1.2-.9-2.3-1.4-3.4-.2-.6-.6-.9-1.1-1s-1.1 0-1.3.5c-.1.2-.2.5-.2.7s.1.6.2.8c.2.6.3 1.2.5 1.7.3 1.1.6 2.3.9 3.4.6 2.2 1.2 4.4 1.7 6.6-.2 4.1-.4 8-.6 11.8-3.8 12.3-6.9 22.5-9.1 29.6-1.1 3.5-2 6.3-2.6 8.3-.3.9-.5 1.7-.7 2.2s-.3.7-.3.7.1-.3.2-.8.4-1.2.6-2.2c.6-1.9 1.4-4.7 2.5-8.3 2.2-7.2 5.2-17.4 8.9-29.7v.1c.2-3.8.3-7.7.5-11.8v.1c-.6-2.2-1.2-4.4-1.7-6.6-.3-1.1-.6-2.3-.9-3.4-.2-.6-.3-1.1-.5-1.7-.1-.3-.2-.5-.2-.9 0-.3 0-.7.2-1s.5-.6.8-.7c.4-.1.7-.1 1 0s.7.2.9.5c.3.2.4.6.5.9.5 1.1.9 2.3 1.4 3.4.9 2.3 1.9 4.6 2.8 7l-.4-.1c1.8-1.1 3.6-2.1 5.5-3.1.5-.2.9-.5 1.5-.7.1 0 .3-.1.5-.1s.4.1.5.2c.3.2.5.4.6.6.3.4.6.9.9 1.4.1.2.2.5.4.7.1.3.3.5.3.8v2l-.3-.3c1.3.1 2.5.1 3.8.4.1 0 .2.1.3.1s.2.2.3.3c.1.2.1.3.2.5.1.3.1.6.1.9.1.6.1 1.2.1 1.8l-.2-.2c.8.3 1.5.7 1.9 1.6.2.8.4 1.5.5 2.3 0 .4.1.8 0 1.2 0 .2-.2.5-.4.6-.2.2-.3.2-.5.3-.6.4-1.3.7-1.9 1.1l.1-.2c-.2 2.1-.4 4.1-.7 6.2l-.1.4c0 .1-.1.3-.2.4-.2.2-.3.4-.5.6-.3.4-.7.7-1 1.1-.7.7-1.4 1.4-2.1 2.1l.1-.1c-2.2 9.3-4.2 17.9-6.1 25.6-.9 3.9-1.8 7.5-2.6 10.8-.4 1.7-.8 3.3-1.3 4.8s-1.2 2.9-1.9 4.2c-1.4 2.5-3.2 4.5-4.9 6.1-1.8 1.5-3.7 2.2-5.3 2.3-1.6.2-2.8-.1-3.6-.4-.4-.1-.7-.3-.8-.4.1.6 0 .6 0 .6z" fill="#eb996e"/><path d="m359.9 137.3c0 .1-.3.1-.9.1-.5 0-1.2 0-2 .2-.7.2-1.3.6-1.7.9s-.5.6-.6.6 0-.4.3-.8c.3-.5 1-1 1.8-1.2s1.6-.2 2.1-.1c.7.2 1 .3 1 .3z" fill="#eb996e"/><path d="m357 137.5c-.1-.1-.1-.4 0-.7s.3-.6.5-.5c.1.1.1.4 0 .7-.2.3-.4.5-.5.5z" fill="#eb996e"/><path d="m364.6 141.1c0 .2-1.3.3-3 .4-.8.1-1.4.4-1.7.8s-.2.7-.3.8c0 0-.3-.3-.1-.9.1-.3.4-.6.7-.8.4-.2.8-.3 1.2-.4 1.8-.1 3.2 0 3.2.1z" fill="#eb996e"/><path d="m363.9 144.7c.1 0 .2.7.2 1.7 0 .9-.2 1.6-.3 1.6s-.2-.7-.2-1.7c0-.9.2-1.6.3-1.6z" fill="#eb996e"/><path d="m368.1 171.6.9-3.1c.2-.6 1-.8 1.4-.4l1.2 1.2.7-2.9c.2-.8 1.2-.9 1.6-.2l1.6 3.4z" fill="#fff"/><path d="m375.5 171.1c0 .1-1.5.7-3.5 1.1-2 .5-3.6.8-3.7.6 0-.1 1.5-.7 3.5-1.1 2-.5 3.6-.8 3.7-.6z" fill="#fff"/><path d="m316 154s-.4.4-.9 1.2-1.1 2.1-1.4 3.8-.3 3.7-.2 6 .3 4.7.6 7.3c.5 5.2 1.4 9.9 2.1 13.2.4 1.7.7 3 .9 4 .1.4.2.8.3 1.1.1.2.1.4.1.4s0-.1-.1-.4-.2-.7-.3-1.1c-.2-.9-.6-2.3-1-3.9-.8-3.3-1.6-8-2.2-13.2-.3-2.6-.5-5.1-.6-7.4s-.1-4.3.2-6 .9-3 1.4-3.8c.7-.9 1.1-1.2 1.1-1.2z" fill="#fff"/><path d="m337 140.4s-.1 0-.2.1c-.2.1-.4.2-.7.3-.6.3-1.4.7-2.4 1.2-2 1.1-4.7 2.7-7.5 4.7-2.9 2-5.4 3.8-7.2 5.1-.8.6-1.6 1.1-2.2 1.6-.2.1-.4.3-.6.4-.1.1-.2.1-.2.1s.1-.1.2-.2c.2-.1.4-.3.6-.4.6-.5 1.3-1 2.2-1.6 1.8-1.4 4.3-3.2 7.2-5.2s5.5-3.6 7.6-4.7l2.4-1.2c.2-.1.5-.2.7-.3.1.1.1.1.1.1z" fill="#fff"/><path d="m384.7 146.9s-.1 0-.2-.1-.3-.3-.4-.4c-.4-.3-1-.8-1.8-1.3-1.5-1-3.8-2.2-6.4-3.3-2.6-1-5.1-1.8-6.9-2.3-.9-.2-1.6-.4-2.1-.6-.2-.1-.4-.1-.6-.1-.1 0-.2-.1-.2-.1h.2c.2 0 .4.1.6.1.5.1 1.2.3 2.1.5 1.8.5 4.3 1.2 6.9 2.2 2.6 1.1 4.9 2.2 6.4 3.3 1.7 1.2 2.4 2.1 2.4 2.1z" fill="#fff"/><path d="m337.3 223.2s-.1 0-.4-.1c-.2-.1-.6-.3-1-.5-.8-.5-1.9-1.5-2.2-2.9s0-2.8.4-3.7c.2-.4.4-.8.6-1s.3-.3.3-.3-.4.5-.7 1.3c-.4.8-.6 2.2-.3 3.6s1.3 2.3 2.1 2.9c.7.5 1.2.7 1.2.7z" fill="#fff"/><path d="m334.1 212.4c.1 0 .3.5.5 1.3.2.7.3 1.3.3 1.3-.1 0-.3-.5-.5-1.3-.2-.7-.3-1.3-.3-1.3z" fill="#fff"/><path d="m347.7 436.6 30.5-.2-.6-105.4-.3-107.3-41.3-.5-7.4 14c-3 5.6-5 11.8-5.7 18.1-.5 4.8 3.1 20.6 4.4 24.7l11.4 36.1z" fill="#263238"/><path d="m386.3 223.9 33.5 91.4c3.9 12.2 2.6 24.4-4.1 35.7l-38.9 76-21.9-27.4 32.6-68-28.8-46.6 4.8-61 13.5-.2z" fill="#263238"/><path d="m374.5 254.5v.5c0 .3 0 .8.1 1.4.1 1.2.2 3 .3 5.3.2 4.6.5 11.3.9 19.5s.8 18 1.3 28.9c.2 5.4.5 11.1.8 17.1.2 3 .1 6 .1 9v9.3c0 25.1.1 47.9.1 64.4v19.5 5.3 1.4.5s0-.2 0-.5 0-.8 0-1.4c0-1.2 0-3-.1-5.3 0-4.6-.1-11.3-.1-19.5-.1-16.5-.2-39.2-.3-64.4 0-3.1 0-6.2 0-9.3s.1-6.1-.1-9c-.3-5.9-.5-11.6-.7-17.1-.5-10.9-.9-20.7-1.2-28.9s-.6-14.9-.8-19.5c-.1-2.3-.1-4.1-.2-5.3 0-.6 0-1 0-1.4-.1-.4-.1-.5-.1-.5z" fill="#455a64"/><path d="m373.8 225.7s.1.3.2 1c.1.6.2 1.6.4 2.7.3 2.3.5 5.5.7 9.1s.2 6.8.1 9.1c0 1.2-.1 2.1-.1 2.8 0 .6-.1 1-.1 1-.1 0-.1-1.4-.1-3.8 0-2.3-.1-5.5-.3-9.1-.2-3.5-.4-6.7-.6-9.1-.2-2.3-.3-3.7-.2-3.7z" fill="#455a64"/><path d="m367.1 227.7c.1.1-.5.3-.7 1.1-.1.4 0 .9.4 1.2s1 .5 1.5.3.8-.8.8-1.3-.3-.9-.7-1.1c-.7-.4-1.3-.1-1.3-.2 0 0 .1-.1.4-.2s.7-.1 1.1.1.9.7 1 1.4c0 .7-.3 1.5-1 1.8-.8.3-1.6.1-2-.4-.5-.5-.6-1.2-.4-1.6.1-.5.4-.8.6-.9.1-.2.3-.2.3-.2z" fill="#455a64"/><path d="m351.1 225.9s.2.3.3 1c.1.6.2 1.6.1 2.7s-.5 2.5-1.2 3.9-1.8 2.7-3.2 3.8c-1.5 1-3.1 1.6-4.6 1.8s-2.9.1-4-.1c-1.1-.3-2-.6-2.5-1-.6-.3-.8-.5-.8-.6s1.2.7 3.4 1.2c2.2.4 5.5.2 8.3-1.7 2.8-2 4-5.1 4.3-7.3.2-2.3-.3-3.7-.1-3.7z" fill="#455a64"/><path d="m390.3 234.7c0 .1-.8.1-1.9-.2-1.2-.3-2.7-1.1-3.9-2.5s-1.9-3-2.1-4.2-.1-1.9 0-1.9.1.7.4 1.9c.3 1.1 1 2.6 2.2 3.9s2.6 2.1 3.7 2.5c.9.3 1.6.4 1.6.5z" fill="#455a64"/><path d="m402.2 333.2s-.6.7-1.8 1.4c-.6.4-1.4.8-2.3 1s-2 .3-3.1-.1c-2.1-.7-3.5-2.3-4.3-3.4s-1.2-1.9-1.2-1.9c.1 0 .6.6 1.5 1.7.9 1 2.2 2.5 4.1 3.1 2 .7 3.8-.1 5-.7 1.4-.7 2.1-1.2 2.1-1.1z" fill="#455a64"/><path d="m394.6 339c-.1.1-1.5-1.7-3.2-4-1.6-2.3-2.8-4.2-2.7-4.3s1.5 1.7 3.2 4c1.6 2.3 2.8 4.2 2.7 4.3z" fill="#455a64"/><g fill="#fafafa"><path d="m343.3 258c-.1.1-.5-.5-.8-1.3s-.4-1.4-.3-1.5.5.5.8 1.3.5 1.5.3 1.5z"/><path d="m362.7 260.8c-.1 0-.3-.5-.3-1.1s.1-1.1.3-1.1c.1 0 .3.5.3 1.1-.1.6-.2 1.1-.3 1.1z"/><path d="m354.7 271.3c-.1 0-.3-.6-.4-1.4s0-1.4.2-1.4c.1 0 .3.6.4 1.4 0 .8 0 1.4-.2 1.4z"/><path d="m340.2 279c-.1.1-.5-.3-1.1-.7-.5-.4-1-.7-1-.8s.7-.1 1.3.4.9 1.1.8 1.1z"/><path d="m365.8 288.8c-.1-.1 0-.5.3-1s.7-.8.8-.7 0 .5-.3 1-.7.8-.8.7z"/><path d="m350 291.6c-.1 0-.3-.8-.3-1.8s.1-1.8.3-1.8c.1 0 .3.8.3 1.8-.1 1-.2 1.8-.3 1.8z"/><path d="m344.8 302.8c-.1.1-.6-.1-1.2-.5s-.9-.8-.9-.9c.1-.1.6.1 1.2.5s1 .8.9.9z"/><path d="m360.8 306.7c.1.1-.3.4-.7.6-.5.2-.9.3-.9.1-.1-.1.3-.4.7-.6.5-.2.9-.2.9-.1z"/><path d="m350 325c-.1.1-.6-.7-1.2-1.7-.5-1-.8-1.9-.7-2s.6.7 1.2 1.7c.5 1 .8 1.9.7 2z"/><path d="m367.7 323.3c-.1-.1.1-.7.5-1.5s.8-1.3 1-1.3c.1.1-.1.7-.5 1.5-.5.8-.9 1.4-1 1.3z"/><path d="m359.9 338.8c-.1 0-.1-.8-.3-1.7-.1-.9-.4-1.7-.3-1.8s.6.6.8 1.7c.2 1 0 1.8-.2 1.8z"/><path d="m351.6 347.6c-.1.1-.6-.3-1.1-.8-.5-.6-.8-1.1-.7-1.2s.6.3 1.1.8c.5.6.8 1.1.7 1.2z"/><path d="m371.8 351c-.1-.1.3-.6.8-1.2.6-.6 1.1-.9 1.2-.8s-.3.6-.8 1.2c-.6.5-1.1.9-1.2.8z"/><path d="m360.2 364.2c-.1 0-.1-.8 0-1.7s.4-1.6.5-1.6.1.8 0 1.7-.4 1.7-.5 1.6z"/><path d="m352.4 370.7c-.1.1-.6-.4-1-1.2-.4-.7-.7-1.3-.5-1.4.1-.1.6.4 1 1.2.4.7.6 1.3.5 1.4z"/><path d="m371.2 378.8c.1.1-.4.6-1.1 1.1s-1.4.8-1.4.7c-.1-.1.4-.6 1.1-1.1.6-.5 1.3-.8 1.4-.7z"/><path d="m355.5 389.3c-.1-.1 0-.9.1-1.9s.1-1.8.2-1.8.4.8.3 1.9c0 1.1-.4 1.9-.6 1.8z"/><path d="m361.8 404.4c-.1.1-.5-.3-.9-.8s-.6-1-.5-1.1.5.3.9.8c.3.6.6 1 .5 1.1z"/><path d="m354.9 414.6c-.1.1-.7-.5-1.2-1.3-.6-.8-.9-1.5-.8-1.6s.7.5 1.2 1.3c.6.8 1 1.5.8 1.6z"/><path d="m373.8 401.9c-.1-.1-.1-.4 0-.8.2-.4.4-.7.5-.6s.1.4 0 .8c-.2.3-.4.6-.5.6z"/><path d="m365.5 426c-.1-.1.1-.8.3-1.7s.3-1.6.4-1.6.3.8.1 1.8c-.2.9-.7 1.6-.8 1.5z"/><path d="m370.8 271.5c-.1.1-.4-.3-.7-.9s-.4-1.1-.2-1.1c.1-.1.4.3.7.9.3.5.4 1 .2 1.1z"/><path d="m357 240.3c.1.1-.6.7-1.4 1.5s-1.3 1.5-1.4 1.5c-.1-.1.2-1 1-1.8.8-.9 1.7-1.3 1.8-1.2z"/><path d="m369.3 239.9c-.1 0-.4-.6-.7-1.3s-.7-1.2-.6-1.3.7.3 1 1.1c.4.8.5 1.5.3 1.5z"/><path d="m330.8 250.1c-.1-.1 0-.7.3-1.5s.7-1.3.8-1.3c.1.1 0 .7-.3 1.5s-.6 1.4-.8 1.3z"/><path d="m332.1 265.2c-.1.1-.7-.2-1.3-.7s-1-1-.9-1.1.7.2 1.3.7c.5.5 1 1 .9 1.1z"/><path d="m357.3 228.3c-.1.1-.4-.3-.6-.8s-.3-1-.1-1c.1-.1.4.3.6.8s.3 1 .1 1z"/><path d="m381.5 235.7c-.1 0-.1-.6 0-1.3.2-.7.4-1.3.5-1.2.1 0 .1.6 0 1.3s-.3 1.2-.5 1.2z"/><path d="m387.2 247.1c-.1-.1 0-.8.4-1.7s.8-1.5.9-1.5c.1.1 0 .8-.4 1.7s-.8 1.6-.9 1.5z"/><path d="m383.2 256.4c-.1.1-.6-.6-1.1-1.5s-.7-1.7-.6-1.8.6.6 1.1 1.5c.4.9.7 1.7.6 1.8z"/><path d="m391.8 265.6c-.1-.1 0-.6.2-1.3.3-.7.6-1.2.7-1.1s0 .6-.2 1.3c-.2.6-.5 1.1-.7 1.1z"/><path d="m384.1 274.6c-.1.1-.4-.2-.7-.6s-.4-.8-.2-.9c.1-.1.4.2.7.6.2.4.3.8.2.9z"/><path d="m385.7 293.2c-.1.1-.7-.4-1.4-1.1s-1.1-1.4-1-1.5.7.4 1.4 1.1c.7.8 1.1 1.4 1 1.5z"/><path d="m395.9 282.5c-.1.1-.7-.4-1.2-1.1-.6-.7-.9-1.4-.8-1.5s.7.4 1.2 1.1c.5.8.9 1.5.8 1.5z"/><path d="m401.4 297.3c-.1-.1.1-.8.5-1.7s.8-1.5 1-1.5c.1.1-.1.8-.5 1.7s-.8 1.6-1 1.5z"/><path d="m389.6 309.5c-.1.1-.6-.5-1.2-1.1s-1.2-1-1.2-1.1c.1-.1.8.1 1.5.8.7.6 1 1.3.9 1.4z"/><path d="m390.3 322c0 .1-.5.3-1.1.3s-1.1-.1-1.1-.3.5-.3 1.1-.3c.7 0 1.1.2 1.1.3z"/><path d="m402.5 318.5c-.1-.1.1-.7.3-1.5s.3-1.5.4-1.5.3.7.1 1.6-.7 1.5-.8 1.4z"/><path d="m414.6 322.7c-.1 0-.5-.7-.8-1.6s-.5-1.7-.3-1.7c.1 0 .5.7.8 1.6s.4 1.7.3 1.7z"/><path d="m412.7 339.9c-.1-.1.2-.9.7-1.9s1-1.7 1.1-1.6-.2.9-.7 1.9c-.5.9-1 1.7-1.1 1.6z"/><path d="m401.6 350c-.1.1-.5-.6-.9-1.5s-.6-1.7-.4-1.7c.1-.1.5.6.9 1.5s.6 1.7.4 1.7z"/><path d="m389.4 353.9c0 .1-.4.3-.9.3s-.9-.1-.9-.3.4-.3.9-.3.9.2.9.3z"/><path d="m396.4 370c-.1 0-.4-.6-.6-1.3-.2-.8-.3-1.4-.1-1.5.1 0 .4.6.6 1.3.2.8.3 1.4.1 1.5z"/><path d="m387.6 364.6c-.1-.1 0-.5.3-1.1.3-.5.7-.9.8-.8s0 .5-.3 1.1c-.3.5-.7.9-.8.8z"/><path d="m387.4 382.3c-.1 0-.3-.7-.4-1.5-.1-.9-.1-1.6.1-1.6.1 0 .3.7.4 1.5.1.9 0 1.6-.1 1.6z"/></g></svg>