<svg enable-background="new 0 0 330 303" viewBox="0 0 330 303" xmlns="http://www.w3.org/2000/svg"><path d="m73.6 55.47s5.9-5.45 13.23 24.15 41.17 149.27 42.21 164.04 1.67 18.63-2.34 23.18c16.35-6.88 23.32-20.2 16.99-52.6-6.33-32.39-33.85-132.29-36.64-141.03-6.33-19.77-27.47-22.02-33.45-17.74z" fill="#d67f00"/><path d="m73.92 55.27c-.21.1-.32.2-.32.2.1-.07.21-.14.32-.2z" fill="#ff9e3e"/><path d="m94.55 72.59c-3.37-10.54-10.96-16.1-18.21-18.35-.94.26-1.76.61-2.43 1.03 1.31-.63 6.58-1.23 12.91 24.35 7.33 29.6 41.17 149.27 42.21 164.04s1.67 18.63-2.34 23.18c1.03-.43 2.01-.89 2.97-1.37 5.8-11.4 5.88-29.56 1.53-51.85-6.32-32.4-33.84-132.3-36.64-141.03z" fill="#ff9e3e"/><path d="m75.23 100s-4.12-24.21-4.09-32.01c.03-7.81.53-11.5 2.47-12.52 1.93-1.02 9.43-2.15 15.54 20.49s43.19 156.17 42.8 168.49-1.77 20.54-5.23 22.39c-3.46 1.84-12.52-6.63-15.88-19.69-3.37-13.06-35.61-147.15-35.61-147.15z" fill="#f6d6a4"/><path d="m53.77 61.56s-7.76-2.06-.43 27.54 33.26 151.23 39.24 164.78c5.97 13.55 7.22 17.26 12.88 19.41-17.68 1.55-30.06-6.98-39.58-38.59s-30.04-129.08-31.19-138.17c-3.77-29.75 11.8-35.96 19.08-34.97z" fill="#d67f00"/><path d="m53.47 61.53c.1.01.2.02.3.03 0 0-.11-.03-.3-.03z" fill="#ff9e3e"/><path d="m92.58 253.88c-5.97-13.55-31.9-135.18-39.23-164.78-6.45-26.02-1.23-27.57.13-27.57-3.87-.41-9.84 1.15-14.13 6.93-.24 4 .42 10.59 3.11 21.43 7.34 29.6 33.26 151.23 39.24 164.78 4.11 9.31 5.98 13.98 8.59 16.68 4.59 1.92 9.63 2.43 15.19 1.94-5.68-2.15-6.92-5.86-12.9-19.41z" fill="#ff9e3e"/><path d="m73.12 101.71s-7.65-23.33-11.32-30.22-5.84-9.92-8.02-9.92c-2.19 0-9.34 2.5-4.18 25.38s34.69 158.28 40.8 168.99c6.1 10.71 11.15 17.34 15.07 17.36 3.92.01 7.98-11.71 4.85-24.83s-37.2-146.76-37.2-146.76z" fill="#f6d6a4"/><path d="m121.61 256.46-16.81 4.38c-3.43.9-6.98-1.18-7.87-4.62l-47.22-181.11c-.9-3.43 1.18-6.98 4.62-7.87l16.81-4.38c3.43-.9 6.98 1.18 7.87 4.62l47.21 181.12c.9 3.43-1.18 6.97-4.61 7.86z" fill="#e21c15"/><path d="m124.03 240.18-42.83-164.3c-1.82-6.98-8.29-11.56-15.23-11.3 3.55 1.93 6.33 5.25 7.43 9.45l42.83 164.3c2.1 8.06-2.77 16.37-10.83 18.47-1.08.28-2.17.43-3.24.47 3.27 1.78 7.18 2.39 11.04 1.38 8.06-2.1 12.93-10.41 10.83-18.47z" fill="#a00032"/><path d="m76.07 71s-18.87 8.21-15.9 34.83c3.89-14.82 13.63-31.7 15.9-34.83z" fill="#ff8da6"/><path d="m83.4 96.29s-18.87 8.21-15.9 34.83c3.88-14.82 13.62-31.7 15.9-34.83z" fill="#ff8da6"/><path d="m90.83 124.79s-18.87 8.21-15.9 34.83c3.88-14.82 13.62-31.69 15.9-34.83z" fill="#ff8da6"/><path d="m96.55 146.75s-18.87 8.21-15.9 34.83c3.89-14.82 13.63-31.7 15.9-34.83z" fill="#ff8da6"/><path d="m102.63 168.23s-18.87 8.21-15.9 34.83c3.89-14.82 13.63-31.7 15.9-34.83z" fill="#ff8da6"/><path d="m109.56 193.95s-18.87 8.21-15.9 34.83c3.88-14.82 13.62-31.69 15.9-34.83z" fill="#ff8da6"/><path d="m116.59 218.88s-18.87 8.21-15.9 34.83c3.88-14.81 13.62-31.69 15.9-34.83z" fill="#ff8da6"/><path d="m40.91 91.29c2.42-.42 4.36-1.67 6.65-2.48 3.18-1.12 6.56-1.58 9.83-2.39 5.83-1.44 11.72-3.2 17.69-3.93 6.59-.82 13.25-1.32 19.85-1.99 1.65-.17 5.46-1.28 5.7 1.21.29 2.96-7.53 5.22-9.86 6.1-5.92 2.24-12 3.73-17.91 5.97-5.86 2.22-11.83 4.13-17.67 6.44-4.59 1.82-9.21 4.09-12.68 7.65-2.42 2.48-5.38 6.43-2.86 10 2.68 3.78 9.62 1.83 13.34 1.55 6.8-.5 13.48-2.09 20.25-2.46 6.7-.36 13.39-.97 20.1-1.25 3.13-.13 6.16.23 9.21.93 1.17.27 2.36.48 3.53.75.81.19 2.74.5 3.16.93.14.89.28 1.77.42 2.66-.45.23-.91.47-1.36.7-4.51 3.07-11.11 3.84-16.21 5.58-5.93 2.02-11.81 4.16-17.59 6.61-4.76 2.02-8.86 4.81-13.34 7.3-2.65 1.47-7.63 5.17-6.52 8.84 1.89 6.24 16.69 3.36 20.64 3.12 7.51-.46 15.02-.86 22.53-1.34 3.29-.21 6.81-.87 10.09-.69 3.02.16 8.19 1.46 9.48 4.37 2.2 4.97-10.7 8.77-13.87 9.85-6.64 2.27-13.32 4.43-19.82 7.06-2.7 1.1-5.39 2.11-8.18 2.97-2.95.91-5.49 2.59-8.22 4-3.03 1.56-9.14 4.46-9.69 8.45-.62 4.49 7.28 4.66 10.05 4.98 5.96.69 12.25 1.43 18.24 1.15 6.34-.3 12.25-1.78 18.48-2.75 2.99-.46 5.97-1.08 8.92-1.75 1.87-.42 3.73-1.02 5.64-1.24 1.23-.14 4.2-.7 5.3-.26 2.01.79 1.89 4.18 1.17 5.79-1.31 2.94-5.61 4.35-8.42 5.36-6.26 2.24-12.6 4.24-18.87 6.48-5.89 2.1-12.55 3.53-17.91 6.82-4.34 2.66-9.71 4.31-13.4 7.98-2.15 2.14-5.28 7.1-2.22 9.62 1.71 1.4 4.13 1.4 6.21 1.5 3.58.17 6.97-.02 10.53-.25 2.87-.18 5.75-.16 8.61-.5 3.03-.35 5.67-1.47 8.51-2.51 6.21-2.28 13.38-3.3 19.88-4.51 3.14-.59 6.31-1.12 9.5-1.29 1.57-.09 3.14-.17 4.72-.28 1.87-.13 4.17-.81 4.78 1.42 1.42 5.15-8.59 7.78-12 9.09-5.82 2.24-11.94 3.81-17.8 6-5.35 2-10.45 4.53-15.45 7.27-3.77 2.06-9.14 5.1-11.33 8.96-1.24 2.19 2.25 3.93 3.48 1.75 1.36-2.4 4.69-3.98 6.89-5.49 2.7-1.85 5.65-3.36 8.56-4.86 5.74-2.94 11.9-5.07 17.99-7.15 5.83-1.99 11.65-3.53 17.18-6.36 3.26-1.67 6.45-3.82 6.53-7.82.06-3.18-1.5-6.46-4.91-6.89-2.79-.35-6.06.3-8.87.46-3.45.2-6.85.79-10.24 1.44-6.22 1.19-12.91 2.14-18.94 4.13-3.16 1.04-6.01 2.46-9.37 2.82-3.58.39-7.22.38-10.82.66-1.56.12-10.19 1.01-10.86-.74-.37-.97 1.96-3.57 2.62-4.12 1.24-1.05 2.76-1.85 4.15-2.69 5.31-3.19 11.12-6.04 17.02-7.93 6.77-2.16 13.38-4.79 20.16-6.9 5.23-1.63 11.2-3.33 15.44-6.95 3.03-2.59 3.54-5.89 2.59-9.7-1.08-4.32-4.08-4.55-8-4.38-6.8.3-13.63 2.43-20.34 3.61-6.75 1.18-13.19 2.67-20.12 2.16-3.29-.24-6.59-.41-9.87-.71-1.09-.1-8.67-.33-9.14-1.4-.88-1.97 14.43-8.63 16.03-9.11 6.51-1.96 12.88-4.8 19.3-7.09 6.24-2.23 12.59-4.23 18.49-7.3 3.65-1.9 6.65-5.28 5.65-9.59-.98-4.21-6.07-6.02-9.78-6.94-6.32-1.57-13.76.09-20.22.48-7.51.45-15.02.85-22.53 1.35-1.9.13-3.79.32-5.69.2-.89-.06-1.81-.15-2.68-.35-1.83-.41-2.43-.34-.84-2.19 1.96-2.27 4.83-3.44 7.28-5.07 2.32-1.55 5.2-3.04 7.76-4.19 5.87-2.64 11.98-4.87 18.08-6.87 5.52-1.81 11.14-3.21 16.4-5.62 3.23-1.48 6.94-4.06 4.83-8.13-2.06-3.97-9.6-4.6-13.5-5.17-6.27-.93-12.58-.09-18.88.31-3.33.21-6.66.38-9.99.59-3.75.24-7.39 1.21-11.11 1.69-3.26.41-6.54.57-9.82.87-1.52.14-3.47.7-4.96.41-3.32-.64-3.23-2.35-1.34-4.57 4.02-4.73 10.09-6.77 15.68-9.03 6.1-2.46 12.43-4.74 18.67-6.84 6.2-2.09 12.5-3.54 18.5-6.31 3.86-1.78 8.61-4.31 7.01-9.2-1.46-4.48-4.16-3.95-8.28-3.65-12.26.89-24.49 2.21-36.41 5.34-3.24.85-6.5 1.54-9.76 2.31-3.09.74-6.05 2.71-9.12 3.24-2.41.44-2.2 4.33.27 3.9z" fill="#ffe59c"/><path d="m191.11 7.42c-39.87 0-72.18 32.32-72.18 72.18 0 39.87 32.32 72.18 72.18 72.18s72.18-32.32 72.18-72.18-32.32-72.18-72.18-72.18zm0 107.63c-19.58 0-35.45-15.87-35.45-35.45s15.87-35.45 35.45-35.45 35.45 15.87 35.45 35.45-15.87 35.45-35.45 35.45z" fill="#ff9e3e"/><path d="m174.95 48.05c-15.65 3.58-27.31 17.24-27.31 33.55 0 19.04 15.87 34.47 35.45 34.47 2.97 0 5.86-.36 8.62-1.03-.2 0-.4.02-.6.02-19.58 0-35.45-15.87-35.45-35.45-.01-13.77 7.84-25.68 19.29-31.56z" fill="#ffce55"/><path d="m191.11 7.42c-12.75 0-24.73 3.31-35.13 9.12 8.37-3.3 17.52-5.12 27.11-5.12 39.87 0 72.18 31.42 72.18 70.19 0 37.45-30.16 68.04-68.15 70.08 1.32.07 2.65.11 3.98.11 39.87 0 72.18-32.32 72.18-72.18.01-39.88-32.31-72.2-72.17-72.2z" fill="#ffbe5f"/><path d="m241.94 120.99c-1.01-3.78-2.39-7.73-1.34-11.5.93-3.31 3.59-5.82 6.27-7.99s5.55-4.27 7.22-7.28 1.73-7.25-.89-9.48c-1.82-1.54-4.64-1.94-5.79-4.03-1.26-2.3.3-5.06 1.57-7.36 3.12-5.66 4.6-12.21 4.22-18.66-.06-1.1-.2-2.25-.82-3.17-1.67-2.45-5.36-1.72-8.28-2.22-3.65-.63-6.7-3.87-7.09-7.56-.58-5.39 3.74-11.52.4-15.79-2.2-2.8-6.35-2.77-9.9-2.72-3.56.05-7.86-.64-9.22-3.93-1.34-3.25-1.12-6.77-5.57-7.37-2.52-.34-4.05 1.23-6.09 2.39-7.58 4.31-15.53-.78-23.3-1.81-5.2-.69-11.43 1-13.36 5.88-.45 1.13-.63 2.35-1.17 3.44-1.44 2.89-4.95 4.01-8.15 4.46-3.19.45-6.63.56-9.26 2.43-2.06 1.46-3.35 3.94-3.38 6.47-.02 2.34.94 4.83-.09 6.92-.51 1.03-1.44 1.79-2.39 2.43-4.23 2.86-9.39 4.06-13.74 6.72-4.36 2.66-8.03 7.8-6.41 12.64 1.18 3.53 4.84 5.83 5.89 9.4 1.23 4.16-1.4 8.34-3.1 12.33-2.18 5.14-2.73 11.51.62 15.97 3.28 4.38 9.59 6.03 12.06 10.91 1.92 3.79.91 8.36 1.74 12.52 1.14 5.76 6.16 10.53 11.96 11.39 5.49.81 11.22-1.59 16.57-.12 3.32.91 6.05 3.2 8.86 5.2 4.07 2.89 8.63 5.3 13.58 5.96s10.34-.66 13.77-4.29c1.18-1.25 2.09-2.72 3.3-3.94 3.62-3.67 9.26-4.47 14.4-4.07 4.17.32 8.99 1.03 12.64-.39 1.47-1.25 2.9-2.55 4.27-3.91 1.37-2.94.86-6.64 0-9.87zm-50.83-5.94c-19.58 0-35.45-15.87-35.45-35.45s15.87-35.45 35.45-35.45 35.45 15.87 35.45 35.45-15.87 35.45-35.45 35.45z" fill="#e21c15"/><g fill="#ffe10b"><circle cx="177.83" cy="20.66" r="2.73"/><circle cx="152.64" cy="55.59" r="2.73"/><circle cx="235.85" cy="84.16" r="2.73"/><circle cx="222.34" cy="45.98" r="2.73"/><circle cx="231.76" cy="131.31" r="2.73"/><circle cx="188.12" cy="120.99" r="2.73"/><circle cx="141.89" cy="98.52" r="2.73"/><circle cx="137.12" cy="74.08" r="2.73"/></g><circle cx="169.26" cy="43.25" fill="#ff88a2" r="2.73"/><circle cx="135.52" cy="61.03" fill="#ff88a2" r="2.73"/><circle cx="156.92" cy="107.54" fill="#ff88a2" r="2.73"/><circle cx="199.78" cy="138.19" fill="#ff88a2" r="2.73"/><circle cx="238.57" cy="65.72" fill="#ff88a2" r="2.73"/><circle cx="220.85" cy="31.18" fill="#ff88a2" r="2.73"/><circle cx="199.78" cy="27.9" fill="#ff88a2" r="2.73"/><circle cx="154.2" cy="28.45" fill="#8de256" r="2.73"/><circle cx="151.47" cy="81.44" fill="#8de256" r="2.73"/><circle cx="207.06" cy="123.9" fill="#8de256" r="2.73"/><circle cx="155.37" cy="126.63" fill="#8de256" r="2.73"/><circle cx="231.76" cy="73.06" fill="#8de256" r="2.73"/><path d="m195.59 34.55c0 1.51-58.55 10.06-60.06 10.06s54.61-8.56 54.61-10.06c0-1.51 1.22-2.73 2.73-2.73 1.49.01 2.72 1.23 2.72 2.73z" fill="#2cbae5"/><circle cx="235.85" cy="55.59" fill="#2cbae5" r="2.73"/><circle cx="132.8" cy="91.96" fill="#2cbae5" r="2.73"/><circle cx="226.31" cy="104.81" fill="#2cbae5" r="2.73"/><circle cx="169.94" cy="126.63" fill="#2cbae5" r="2.73"/><path d="m229.03 151.86c-39.87 0-72.18 32.32-72.18 72.18 0 39.87 32.32 72.18 72.18 72.18 39.87 0 72.18-32.32 72.18-72.18.01-39.86-32.31-72.18-72.18-72.18z" fill="#ff9e3e"/><path d="m229.03 151.86c-1.88 0-3.74.07-5.58.21 37.26 2.85 66.61 33.98 66.61 71.97s-29.35 69.12-66.61 71.97c1.84.14 3.7.21 5.58.21 39.87 0 72.18-32.32 72.18-72.18.01-39.86-32.31-72.18-72.18-72.18z" fill="#ffbe5f"/><path d="m256.15 246.93c11.07-4.31 23.98-5.73 32.22-14.27 1.99-2.07 3.68-5.15 2.37-7.7-.71-1.39-2.15-2.24-3.55-2.91-16-7.6-35.18-.7-52.52-4.28 14.45-6.08 31.32-3.95 45.82-9.92 2.73-1.12 5.71-3.06 5.81-6.02.12-3.71-4.23-5.77-7.88-6.5-5.47-1.09-11.09-1.41-16.65-.95-.69-1.63.36-3.55 1.83-4.53 4.02-2.69 9.03-2.11 11.67-6.94 1.68-3.09 1.21-5.64-1.66-7.58-3.15-2.13-7.13-2.98-10.43-4.89-4.38-2.54-8.45-6.49-13.9-6.06-3.48.28-6.62 2.4-10.1 2.65-4.88.35-9.16-2.97-13.77-4.59-7.15-2.51-15.99-.39-20.37 5.8-1.14 1.61-2.01 3.49-3.56 4.72-1.2.95-2.7 1.43-4.2 1.78-4.02.93-8.18 1.05-12.25 1.75s-8.2 2.08-11.08 5.04-4.11 7.8-1.97 11.33c.77 1.27 1.94 2.36 2.23 3.81.51 2.52-1.78 4.69-3.96 6.05s-4.74 2.81-5.26 5.33c-.41 2.01.72 4.08 2.31 5.37s3.59 1.95 5.53 2.59c3.48 1.14 6.95 2.28 10.43 3.42.64.21 1.32.45 1.74.98 1.16 1.48-.58 3.45-2.09 4.59-4.66 3.52-8.68 7.9-11.79 12.85-.93 1.47-1.8 3.11-1.68 4.85.26 3.9 4.92 5.65 8.74 6.48 5.06 1.1 10.13 2.2 15.19 3.31 1.26 4.97-3.89 9-6.11 13.62-.44.92-.77 1.97-.44 2.93.59 1.75 2.84 2.14 4.69 2.22 19.67.9 39.43-.01 58.93-2.73.48 1.97-1.83 3.38-3.73 4.09-9.11 3.41-18.23 6.81-27.34 10.22.86 2.26 3.6 3.09 6 3.42 15.34 2.09 30.44-4.39 44.34-11.21 3.75-1.84 7.61-3.82 10.21-7.09s3.57-8.23 1.13-11.62c-2.63-3.66-7.81-4.1-12.32-4.19-6.05-.13-12.1-.26-18.15-.39.56-2.49 3.17-3.9 5.57-4.83z" fill="#ffe10b"/><path d="m178.1 181.86c5.84-.67 11.76-1.65 17.56-2.68 6.19-1.09 12.28-3.08 18.55-3.17 6.14-.09 12.09-1.92 18.27-1.97 3.29-.02 6.58.04 9.86.04 1.33 0 3.58-.5 4.72.18 1.51.91.93 2.73-.15 3.56-2.17 1.66-5.61 1.86-8.14 2.51-3.22.83-6.48 1.2-9.76 1.69-6.45.95-12.97 1.68-19.38 2.77-12.18 2.07-25.32 2.65-36.57 8.24-2.56 1.27-5.2 4.89-2.14 7.17 1.45 1.08 3.76 1.24 5.48 1.62 3.3.73 6.6 1.17 9.97 1.35 6.82.37 13.88.25 20.68-.36 2.85-.25 5.62-.94 8.44-1.37 3.64-.55 7.32-.52 10.99-.51 7.43.01 14.86 0 22.29 0 3.18 0 6.38.08 9.56-.03 1.2-.04 3.26-.1 3.52 1.62.27 1.71-1.89 2.3-3.14 2.78-2.7 1.04-5.69 1.9-8.53 2.47-3.37.68-6.81.45-10.19 1.14-6.45 1.32-13.11 1.77-19.62 2.91-3.72.65-14.54 2.24-12.53 8.17 1.47 4.34 7.81 5.07 11.54 5.69 6.58 1.09 13.12.98 19.77.98 7.07-.01 13.95-.37 20.96.78 2.86.47 5.82.79 8.62 1.54 1.95.53 3.25.39 2.03 1.8-.59.68-1.96 1.16-2.79 1.48-6.01 2.3-11.69 1.93-17.94 2.21-6.49.29-13.02 1.78-19.45 2.7-13.12 1.87-26.25 3.76-39.41 5.45-3.01.39-29.14 5-22.85 11.85 2.81 3.05 9.84 3 13.59 3.41 5.94.65 12.97 1.11 18.88.08 7.19-1.25 14.16-1.94 21.44-2.45 7.22-.5 14.23-2.33 21.49-2.35 6.84-.02 13.67.02 20.51 0 1.92-.01 3.96-.41 5.12 1.31 1.67 2.46-1.03 3.35-2.95 3.95-3.24 1.02-6.56 1.36-9.9 1.85-6.82 1-13.92 1.59-20.67 3-5.84 1.22-11.44 2.94-17.19 4.47-3.26.86-9.24 2.58-9.92 6.53-.49 2.85 2.19 4.13 4.54 4.6 9.08 1.84 18.88-.48 27.84-1.69 6.84-.92 13.46-1.42 20.35-1.42 2.51 0 2.51-3.9 0-3.9-6.75 0-13.22.48-19.91 1.36-6.49.86-12.86 2.13-19.42 2.14-2.14 0-7.46.9-9.07-.55-.73-.66-.23-.29.58-.86.4-.28 1.03-.5 1.47-.71 1.53-.73 2.95-1.32 4.57-1.76 3.06-.82 6.03-2.02 9.11-2.72 6.5-1.47 12.99-2.33 19.59-3.22 6.3-.85 12.96-1.55 19.06-3.38 3.92-1.17 7.34-3.26 6.33-7.88-1.03-4.72-5.59-5.05-9.55-5.03-7.08.04-14.16-.05-21.24 0-7.25.05-14.28 1.93-21.51 2.4-13.38.88-26.59 3.85-40.02 2.25-2.2-.26-7.4-.06-9.01-1.61-.54-.52.61-.73 1.62-1.21 1.94-.94 3.97-1.68 6.03-2.31 6.16-1.86 12.6-2.34 18.91-3.49 6.86-1.25 13.78-1.56 20.69-2.33 6.53-.73 13.02-2.26 19.55-3.14 3.35-.45 6.69-1.18 10.06-1.41 3.34-.22 6.69.28 10.03-.06 4.08-.41 8.81-1.52 12.41-3.59 2.25-1.29 5.13-3.76 3.39-6.6-2.42-3.96-10.72-3.94-14.68-4.58-13.27-2.15-26.78.52-40.04-1.64-1.17-.19-9.09-1.12-8.89-3.18.09-.93 3.99-1.83 4.66-2.02 4.28-1.18 8.72-1.65 13.06-2.52 6.56-1.32 13.48-1.48 20.1-2.37 4.45-.6 11.39-1.94 14.85-5.07 2.29-2.07 2.14-6.78-.26-8.8-1.31-1.11-3.13-1.06-4.74-1-3.23.11-6.46.09-9.7.09-7.19 0-14.38 0-21.57 0-6.45 0-12.41.61-18.76 1.6-7.11 1.11-14.88 1-22.06.67-3.51-.16-6.88-.62-10.3-1.39-1.19-.27-3.39-.1-1.78-1.49.61-.53 2.93-1.26 3.58-1.51 6.01-2.31 12.06-2.79 18.26-4.13 6.7-1.45 13.62-2.16 20.42-3.01 6.45-.81 13.06-1.78 19.45-2.97 4.16-.78 10.77-1.58 13.97-4.78 2.27-2.27 1.32-7.6-1.35-9.26-1.76-1.1-4.35-.58-6.3-.58-3.53 0-7.06-.07-10.59-.04-6.38.05-12.58 1.97-18.9 1.97-5.62 0-10.72 1.99-16.24 2.85-6.38 1-12.82 2.25-19.24 2.99-2.43.27-2.46 4.17.03 3.88z" fill="#fffdab"/></svg>