<svg enable-background="new 0 0 283 221.42" viewBox="0 0 283 221.42" xmlns="http://www.w3.org/2000/svg"><g fill="#ffe4ca"><path d="m256.3 59.85s-34.43-27.11-65.2-19.78-23.77 13.19-45.58 7.33c-21.82-5.86-55.14-14.09-87.75 13.19-32.63 27.27-53.61 83.05-29.77 107.54s47.35 30.18 97.17 30.18 108.43 7.33 131.14-10.26c22.7-17.57 33.22-112.53-.01-128.2z" opacity=".3"/><path d="m109.13 95.78h10.82v5.55h-10.82z"/><path d="m115.23 102.99h10.82v5.55h-10.82z"/><path d="m121.62 95.78h10.82v5.55h-10.82z"/><path d="m109.13 168.6h10.82v5.55h-10.82z"/><path d="m115.23 175.81h10.82v5.55h-10.82z"/><path d="m121.62 168.6h10.82v5.55h-10.82z"/><path d="m88.31 129.38h10.82v5.55h-10.82z"/><path d="m93.86 135.82h10.82v5.55h-10.82z"/><path d="m88.31 142.21h10.82v5.55h-10.82z"/><path d="m88.31 56.56h10.82v5.55h-10.82z"/><path d="m93.86 63h10.82v5.55h-10.82z"/><path d="m88.31 69.38h10.82v5.55h-10.82z"/><path d="m155.1 11.88h102.72v188.35h-102.72z"/></g><path d="m161.5 17.56h90.26v183.4h-90.26z" fill="#c76639"/><path d="m176.86 32.5h61.62v69.48h-61.62z" fill="#c76639"/><path d="m182.1 37.73h51.15v59.01h-51.15z" fill="#c76639"/><path d="m176.86 32.5h61.62l-5.23 5.23h-51.15z" fill="#c76639" opacity=".5"/><path d="m176.86 101.97h61.62l-5.23-5.23h-51.15z" fill="#c76639" opacity=".5"/><path d="m238.48 32.5v69.47l-5.23-5.23v-59.01z" fill="#c76639" opacity=".2"/><path d="m176.86 32.5v69.47l5.24-5.23v-59.01z" fill="#c76639" opacity=".2"/><path d="m176.86 118.36h61.62v69.48h-61.62z" fill="#c76639"/><path d="m182.1 123.6h51.15v59.01h-51.15z" fill="#c76639"/><path d="m176.86 118.36h61.62l-5.23 5.24h-51.15z" fill="#c76639" opacity=".5"/><path d="m176.86 187.84h61.62l-5.23-5.23h-51.15z" fill="#c76639" opacity=".5"/><path d="m238.48 118.36v69.48l-5.23-5.23v-59.01z" fill="#c76639" opacity=".2"/><path d="m176.86 118.36v69.48l5.24-5.23v-59.01z" fill="#c76639" opacity=".2"/><path d="m164.97 97.96h8.87v20.6h-8.87z" fill="#dadada"/><path d="m169.57 118.56h4.26v-20.6h-6.69s4.52 0 4.69 9.39c.18 9.38-2.26 11.21-2.26 11.21z" fill="#dadada" opacity=".4"/><path d="m181.92 108.04c0 .81-.66 1.48-1.48 1.48h-8.99c-.81 0-1.48-.66-1.48-1.48v-.39c0-.81.67-1.48 1.48-1.48h8.99c.81 0 1.48.66 1.48 1.48z" fill="#a7a9ac"/><path d="m180.44 106.17c.22.26.35.58.35.94v.39c0 .81-.67 1.48-1.48 1.48h-8.99c.27.32.67.53 1.13.53h8.99c.81 0 1.48-.66 1.48-1.48v-.39c0-.8-.66-1.47-1.48-1.47z" fill="#a7a9ac" opacity=".3"/><path d="m122.42 202.09c0 1.08 12.95 1.96 28.92 1.96s28.92-.88 28.92-1.96-12.95-1.96-28.92-1.96-28.92.88-28.92 1.96z" fill="#a0a0a0" opacity=".4"/><path d="m126.78 172.31h35.35v29.86h-35.35z" fill="#e0c398"/><path d="m171.29 170.55-34.81-.03-9.7 1.79h35.35z" fill="#e7d2ad"/><path d="m171.29 200.64-9.16 1.53v-29.86l9.16-1.76z" fill="#cfab7a"/><path d="m138.69 172.31h9.01v29.86h-9.01z" fill="#fff" opacity=".4"/><path d="m153.49 170.53h-9l-5.8 1.78h9.01z" fill="#fff" opacity=".4"/><path d="m134.6 152.07h22.93v19.36h-22.93z" fill="#e0c398"/><path d="m163.47 150.93-22.58-.02-6.29 1.16h22.93z" fill="#e7d2ad"/><path d="m163.47 170.45-5.94.99v-19.37l5.94-1.14z" fill="#cfab7a"/><path d="m142.32 152.07h5.84v19.36h-5.84z" fill="#fff" opacity=".4"/><path d="m151.93 150.92h-5.84l-3.77 1.15h5.85z" fill="#fff" opacity=".4"/><path d="m44.46 189.08s-1.9 3.2-1.43 5.31c.44 2.01 1.39 4.05 1.39 4.05s6.72 1.47 7.94 1.84c1.2.36 10.25 1.11 11.71-2.46 1.58-3.86-1.45-5.6-3.71-5.26s-4.99-.03-5.97-.47c0 0-1.82-1.6-2.26-2.31-.44-.72-.89-1.37-1.66-.62-.76.74-2.93 1.53-4.13.53-1.23-1.03-1.88-.61-1.88-.61z" fill="#231f20"/><path d="m43.77 196.84s1.8.67 4.08 1.33c2.23.63 9.34 1.47 11.9 1.43 2.5-.04 4.35-1.93 4.39-1.97-.02.06-.05.13-.07.19-1.46 3.57-10.51 2.82-11.71 2.46-1.22-.37-7.94-1.84-7.94-1.84s-.31-.67-.65-1.6z" fill="#231f20" opacity=".5"/><path d="m23.23 189.85s-4.42-.96-5.85.16c-1.42 1.12-2.55 5.63-3.06 7.15s-.51 2.74 2.03 3.35 10.97.49 11.98-.67c1.02-1.15-2.26-9.61-5.1-9.99z" fill="#231f20"/><path d="m28.34 199.84c1.02-1.16-2.26-9.61-5.11-9.99 0 0-1.7-.37-3.33-.38.16.4.51.74 1.17.94 2.4.72 7.61 5.61 3.36 8.65-4.24 3.04-10.06.41-10.06.41.33.44.94.79 1.99 1.05 2.53.6 10.96.48 11.98-.68z" fill="#231f20" opacity=".5"/><path d="m17.92 123.7s-4.53 62.9-1.89 65.92 9.79.35 9.79.35l6.29-51.77 10.36 51.99s6 3.59 10.54-.77l-10.5-66.96c.01 0-17.42 3.51-24.59 1.24z" fill="#ff0606"/><path d="m42.52 122.46s-17.42 3.51-24.6 1.24c0 0-.16 2.24-.41 5.9s17.24.56 25.25-5.59z" fill="#a84d10" opacity=".4"/><g fill="#a84d10" opacity=".3"><path d="m36.81 135.22-.08.1c1.51-.81.08-.1.08-.1z"/><path d="m44.01 190.89c-1.49-1.76-9.47-52.64-9.47-52.64l2.19-2.92c-.22.12-.51.27-.87.47-2.83 1.51-5.67 1.51-5.67 1.51l1.92.9 10.36 51.99c0-.01.59.34 1.54.69z"/></g><path d="m72.32 102s5.01 1.28 5.6 1.22c.6-.06 1.94-1.6 2.94-2.22s1.29.46.58 1.84c-.71 1.37-1.61 1.91.95 2.61s5.62 1.09 5.82 2.16c.21 1.06-.89 1.12-.82 1.33.12.37-1.09 1.24-1.7 2.01-.6.77-2.64 2.71-5.24 1.92s-3.56-1.46-5.08-2.82c-1.52-1.35-5.03-1.67-5.03-1.67z" fill="#e6e7e8"/><path d="m75.34 101.97s-.85 6.31-2.38 7.97c0 0-13.66-4.29-18.39-5.91s-14.85-3.06-19.05-7.39-4.66-9.27-1.44-11.55c3.23-2.28 8.58 1.73 11.6 4.12 3.02 2.4 11.22 6.93 14.86 8.04 3.63 1.12 14.8 4.72 14.8 4.72z" fill="#414042"/><path d="m60.19 105.88c-.1-.03-3.88-1.29-11.21-5.22-7.42-3.98-7.27-14.3-7.27-14.3-2.64-1.62-5.56-2.73-7.63-1.27-3.22 2.28-2.76 7.21 1.44 11.55 4.2 4.33 14.32 5.77 19.05 7.39 1.33.46 3.37 1.13 5.62 1.85z" fill="#22c4a8" opacity=".3"/><path d="m23.86 82.96c-4.05 1.72-8.73 4.64-8.88 13.39-.14 8.02.57 28.5.57 28.5 10.49 5.27 29.66-1.62 29.66-1.62s-.99-17.95-3.72-29.51c0 0-.97-8.54-4.67-9.64-3.74-1.12 0 0 0 0z" fill="#fff"/><path d="m45.21 123.23s-10.63 1.8-17.08 1.94c-6.44.13-10.49-1.6-10.43-4.78.07-3.19 2.72-13.22 3.85-15.27 1.13-2.06 4.52-13.15 4.52-13.15-2.31-4.95-5.13-6.11-8.13-4.92-1.68 2.04-2.88 4.95-2.96 9.3-.14 8.02.57 28.5.57 28.5 10.49 5.27 29.66-1.62 29.66-1.62z" fill="#22d3b9" opacity=".3"/><path d="m12.5 128.94s-.87 2.41-.12 3.3c.75.9 1.5 3.44 1.35 4.34s-.53 1.28-1.12 1.08-.89.49-1.13 1.08c-.25.59-1.23 2.36-3.35 1.53-2.12-.84-4.43-1.67-3.6-4.83.84-3.15 1.75-3.84 2.17-4.63s.69-2.66.69-2.66z" fill="#e6e7e8"/><path d="m14.39 129.99s-6.37-.04-8.21-1.35c0 0 2.52-14.1 3.53-18.99s1.15-15.11 4.91-19.83 8.6-5.8 11.27-2.89-.62 8.73-2.61 12.03c-1.99 3.29-5.45 12.01-6.09 15.76-.64 3.74-2.8 15.27-2.8 15.27z" fill="#414042"/><path d="m19.7 102.13c-2.19 3.39-5.11 23.18-6.1 25.5-.99 2.3-4.68 1.9-4.76 1.89 2.49.45 5.56.47 5.56.47s2.15-11.53 2.8-15.28c.64-3.75 4.1-12.46 6.09-15.76 1.67-2.77 4.24-7.3 3.45-10.41.34 3.18-4.87 10.22-7.04 13.59z" fill="#22c4a8" opacity=".3"/><path d="m32.51 80.72c.49.41 5.91 2.11 5.91 2.11l-2.99 4.68-3.33-4.46z" fill="#302e2d"/><path d="m36.16 76.59s-2.53 5.9-1.79 8.83c0 0-7.02-.07-10.78-2.35l.94-7.18c0-.01 7.04 2.55 11.63.7z" fill="#fdcba3"/><path d="m35.46 83.23s-1 3.41-2.16 5.47c0 0-6.32-2.51-10.15-5.47l.75-2.13z" fill="#302e2d"/><path d="m12.76 67.9c2.95 8.9 12.33 13.8 20.96 10.94s13.24-12.39 10.29-21.29-12.33-13.8-20.96-10.94-13.23 12.39-10.29 21.29z" fill="#fedbbb"/><path d="m44.1 54.86 2.33 2.46s-10.3-4.79-14.18-4.09c0 0 4.15 1.35 4.99 2.23 0 0-8.19-1.09-11.65.72 0 0 2.2.25 3.47.99 0 0-7.49-.06-9.94 1.17 0 0 1.37 2.56-.92 4.14-3.43 2.38-2.54 6.72-2.54 6.72l-2-.06s-2.88-7-3.37-9.26c-.5-2.26.52-12.32 8.71-14.58 8.2-2.25 17.29-5.01 25.1 9.56z" fill="#141414"/><path d="m12.46 72.54c2.1 1.63 4.5 1.86 5.36.44.89-1.48-.26-4.12-2.55-5.8-2.23-1.64-4.59-1.65-5.29-.12-.67 1.48.43 3.9 2.48 5.48z" fill="#fedbbb"/><path d="m11.83 68.64c-.36.11 1.43-1.26 3.31.82s.48 2.91-.49 1.99c-.97-.91-1.02-1.46-.35-1.57 0 0-1.05-1.69-2.47-1.24z" fill="#fdcba3"/><path d="m24.48 61.86c.3 1.17.9 2.03 1.33 1.91.43-.11.54-1.15.23-2.32-.3-1.17-.9-2.02-1.33-1.91-.43.12-.53 1.16-.23 2.32z" fill="#231f20"/><path d="m37.79 60.22c.3 1.17.9 2.02 1.33 1.91s.53-1.15.23-2.32-.9-2.02-1.33-1.91c-.43.12-.53 1.15-.23 2.32z" fill="#231f20"/><path d="m23.06 46.61c8.63-2.86 18.01 2.04 20.96 10.94 2.49 7.54-.42 15.52-6.61 19.53 8.15-5.84 7.62-17.9 4.67-20.91-2.94-3.01-10.93-2.38-10.93-2.38l4.19 2c-3.61-.8-11.59.68-11.59.68 1.66.18 3.52 1.77 3.52 1.77-2.29-.44-8.16.12-8.16.12s-4.15 2.67-7.23 4.26c-.08-7.13 4.25-13.72 11.18-16.01z" fill="#fedbbb" opacity=".4"/><path d="m17.42 42.62c.38 1.38 2.11 2.11 3.87 1.62 1.76-.48 2.87-1.99 2.49-3.37s-2.11-2.1-3.87-1.62c-1.75.49-2.87 2-2.49 3.37z" fill="#a3a3a3"/><path d="m12.35 66.06s10.76-18.99 25.31-22.83c0 0-1.19-5.97-13.76-2.68-12.58 3.29-15.27 10.69-14.24 16.38 1.02 5.69 2.69 9.13 2.69 9.13z" fill="#e11f17"/><path d="m23.78 51.66c-7 6.61-11.43 14.41-11.43 14.41s-1.67-3.44-2.69-9.13c-.98-5.46 1.44-12.48 12.69-15.94h-.01c-1.56.45-12.67 5.87-8.1 10.93 2.49 2.75 7.24 1.22 9.54-.27z" fill="#a00404" opacity=".4"/><path d="m18.03 57.72s11.98-15 22.19-14.71c10.2.28 10.52 7.83 7.95 9.93s-4.06 1.92-4.06 1.92-7.37-4.34-12.76-3.09c-5.4 1.25-8.93 5.37-13.32 5.95z" fill="#a3a3a3"/><path d="m15.57 67.42s4.22-.85 8.06-.14.3-.35.3-.35-3.27-.87-8.85.12z" fill="#fff"/><path d="m16.19 73.91s5.4 4.6 9.32 4l.08.41c.01 0-4.69.62-9.4-4.41z" fill="#fff"/><path d="m42.02 64.36s.98-1.99 2.85-2.35l.01.08s-1.56.32-2.79 2.47z" fill="#fff"/><path d="m23.91 66.82s7.3-5.08 18.12-2.46c0 0 1.65 3.74.95 7.61 0 0-4.06 10.07-17.28 7.49 0 0-3.51-10.02-1.79-12.64z" fill="#fff"/><path d="m25.7 79.46c13.22 2.59 17.28-7.49 17.28-7.49.24-1.33.2-2.64.05-3.79-2.49 12.22-17.33 11.28-17.33 11.28z" fill="#e6e7e8"/><path d="m26.81 67.15s8.63-2.9 13.92-1.7c-.01 0-6.11-2.02-13.92 1.7z" fill="#e6e7e8"/><path d="m5.21 201.26c0 .99 16.27 1.79 36.33 1.79s36.33-.8 36.33-1.79-16.27-1.79-36.33-1.79c-20.06.01-36.33.81-36.33 1.79z" fill="#a0a0a0" opacity=".4"/></svg>